<?xml version="1.0" encoding="utf-8"?>
<!-- Generator: Adobe Illustrator 22.1.0, SVG Export Plug-In . SVG Version: 6.00 Build 0)  -->
<svg version="1.1" id="レイヤー_1" xmlns="http://www.w3.org/2000/svg" xmlns:xlink="http://www.w3.org/1999/xlink" x="0px"
	 y="0px" viewBox="0 0 240 71" style="enable-background:new 0 0 240 71;" xml:space="preserve">
<style type="text/css">
	.st0{fill:#505050;}
	.st1{fill:url(#SVGID_1_);}
</style>
<g>
	<g>
		<path class="st0" d="M239.9,21c0-2.1-1.7-3.8-3.8-3.8h-10.4h-9.9h-10.4c-2.1,0-3.8,1.7-3.8,3.8v4.4c0,0.5,0.4,0.9,0.9,0.9H214
			c1,0,1.9,0.8,1.9,1.9v24.7c0,0.5,0.4,0.9,0.9,0.9h8.1c0.5,0,0.9-0.4,0.9-0.9V28.2c0-1,0.8-1.9,1.9-1.9H239c0.5,0,0.9-0.4,0.9-0.9
			V21z"/>
		<path class="st0" d="M157.7,52.6l-11.4-31.5c-0.5-1.5-2-2.5-3.6-2.5h-5c-1.6,0-3,1-3.6,2.5l-11.4,31.5c-0.2,0.6,0.2,1.2,0.9,1.2h7
			c0.8,0,1.5-0.5,1.8-1.2l1.1-3c0.1-0.4,0.5-0.6,0.9-0.6h11.2c0.4,0,0.7,0.2,0.9,0.6l1.1,3c0.3,0.7,1,1.2,1.8,1.2h7.7
			C157.5,53.8,157.9,53.2,157.7,52.6z M136.8,40.3l2.9-8c0.1-0.4,0.7-0.4,0.9,0l2.9,8c0.2,0.6-0.2,1.2-0.8,1.2h-5.1
			C137,41.5,136.6,40.9,136.8,40.3z"/>
		<g>
			<g>
				<g>
					<path class="st0" d="M102.4,45.9c-5.1,0-9.3-4.2-9.3-9.3c0-5.1,4.2-9.3,9.3-9.3c3.5,0,6.6,2,8.2,4.9c0.2,0.3,0.5,0.5,0.8,0.5h8
						c0.6,0,1.1-0.6,0.9-1.2C118,23.7,110.9,18,102.4,18c-10.2,0-18.6,8.3-18.6,18.6c0,10.3,8.3,18.6,18.6,18.6
						c8.5,0,15.7-5.7,17.9-13.5c0.2-0.6-0.3-1.2-0.9-1.2h-8c-0.3,0-0.7,0.2-0.8,0.5C109,43.9,105.9,45.9,102.4,45.9z"/>
				</g>
			</g>
			<path class="st0" d="M184.6,53.6h-14c-4.7,0-7.9-2.5-8.3-7c-0.1-0.5,0.4-1,0.9-1h21.5c1.9,0,4.2-2.3,2.9-4.7
				c-0.6-1.2-2.2-1.9-3.3-1.9h-12.1c-6.2,0-11.3-5.1-11.2-11.2c0.2-6.1,5.2-10.6,11.4-10.6h13.3c4.7,0,8.5,3.5,9,8.1
				c0.1,0.6-0.3,1-0.9,1l-21.4,0c-1.6,0-3.5,2-2.4,4c0.5,0.9,1.6,1.4,2.6,1.4l12.1,0c6.2,0,11.3,5.1,11.2,11.2
				C195.8,49.1,190.8,53.6,184.6,53.6"/>
		</g>
	</g>
	<linearGradient id="SVGID_1_" gradientUnits="userSpaceOnUse" x1="33.9067" y1="0.1748" x2="33.9067" y2="70.8252">
		<stop  offset="0" style="stop-color:#03BED2"/>
		<stop  offset="1" style="stop-color:#093FFF"/>
	</linearGradient>
	<path class="st1" d="M38,28.3v7.2l4.2,2.8c1.4,0.9,1.8,2.8,0.8,4.2c-0.6,0.9-1.5,1.3-2.5,1.3c-0.6,0-1.2-0.2-1.7-0.5l-6.9-4.6V28.3
		c0-1.7,1.4-3,3-3C36.6,25.3,38,26.6,38,28.3z M67,51.2c-6,12.1-18.1,19.6-31.6,19.6c-9.7,0-18.8-3.9-25.6-10.9
		c-6.7-7-10.2-16.3-9.7-26.1c0.4-8.7,4.1-17,10.3-23.2c6.2-6.3,14.5-9.9,23.2-10.4c14-0.7,27.1,6.9,33.4,19.5c1.1,2.2,1,4.8-0.3,6.9
		c-1.3,2.1-3.5,3.3-6,3.3h-9.6c-1.6,0-3-0.8-3.8-2.1c-2.8-4.3-7.7-6.8-12.9-6.5c-7.2,0.5-13,6.5-13.2,13.7c-0.1,3.9,1.3,7.5,4,10.3
		c2.7,2.8,6.3,4.3,10.1,4.3c4.8,0,9.3-2.4,11.9-6.5c0.8-1.3,2.3-2.1,3.8-2.1h9.6c2.5,0,4.7,1.3,6,3.4C68,46.5,68.1,49,67,51.2z
		 M61.5,47.6c-0.1-0.1-0.4-0.5-0.9-0.5h-8.8c-3.8,5.4-9.9,8.6-16.5,8.6c-2.4,0-4.7-0.4-6.9-1.2c-1.2-0.4-2-0.2-3.4,0.2l0,0
		c-1.6,0.4-3.5,0.7-5.2,0.7c-0.9,0-1.4-1-0.7-1.7c0.4-0.5,0.9-1.1,1.3-1.7c0.9-1.4,0.5-2.2,0-2.9c-3.5-3.9-5.4-8.9-5.3-14.2
		C15.5,24.6,23.8,16,34,15.4c7.1-0.5,13.8,2.8,17.9,8.5h8.8c0.5,0,0.7-0.3,0.9-0.5c0.1-0.2,0.3-0.6,0-1c-5-9.9-15.2-16.2-26.2-16.2
		c-0.5,0-1,0-1.5,0C19,7,6.8,19.2,6.1,34.1c-0.4,8.1,2.5,15.8,8.1,21.6c5.6,5.8,13.1,9.1,21.2,9.1c11.2,0,21.2-6.2,26.2-16.3
		C61.8,48.1,61.7,47.8,61.5,47.6z"/>
</g>
</svg>
