<?xml version="1.0" encoding="utf-8"?>
<!-- Generator: Adobe Illustrator 22.1.0, SVG Export Plug-In . SVG Version: 6.00 Build 0)  -->
<svg version="1.1" id="レイヤー_1" xmlns="http://www.w3.org/2000/svg" xmlns:xlink="http://www.w3.org/1999/xlink" x="0px"
	 y="0px" viewBox="0 0 193 102" style="enable-background:new 0 0 193 102;" xml:space="preserve">
<style type="text/css">
	.st0{fill:#00584A;}
	.st1{fill:#EBBB79;}
	.st2{opacity:0.5;fill:#060001;}
	.st3{fill:#211613;}
	.st4{fill:#549D88;}
	.st5{fill:#060001;}
	.st6{fill:#E49538;}
	.st7{fill:#8FAEAD;}
	.st8{fill:#B4E1FF;}
	.st9{fill:#3C3C3C;}
</style>
<g>
	<g>
		<path class="st0" d="M24.7,97V84h18.8v17.6H29.2C26.7,101.5,24.7,99.5,24.7,97z"/>
		<g>
			<polygon class="st1" points="57,41.7 29.6,41.7 29.6,51.6 24.7,51.6 24.7,84 57,84 			"/>
			<g>
				<g>
					<path class="st0" d="M43.4,84v17.6h60.6V89.1H54.9c-2.1,0-3.7-1.7-3.7-3.7V84L43.4,84z"/>
				</g>
			</g>
			<g>
				<g>
					<path class="st0" d="M48.9,86.1l8.4-8.4c3.1-3.1,8.2-3.1,11.3,0l13.6,13.6l-8.8,8.8L62.3,88.9c-1.5-1.5-3.8-1.5-5.3,0l-2.7,2.7
						L48.9,86.1z"/>
				</g>
			</g>
			<path class="st1" d="M33.9,41.7h11.7c5.5,0,9.9-4.5,9.9-9.9V18.3H33.9V41.7z"/>
			<path class="st1" d="M45.6,37.2h-9.2c-5.5,0-9.9-4.5-9.9-9.9v-8.5c0-2.7,2.2-5,5-5h19.1c2.7,0,5,2.2,5,5v8.5
				C55.5,32.7,51,37.2,45.6,37.2z"/>
			<path class="st1" d="M96.6,89.1v12.4h7.5V86.6c0-2.4-3-3.4-4.5-1.5L96.6,89.1z"/>
			<g>
				<g>
					<path class="st2" d="M53,8.9H36.3c-5.5,0-9.9,4.5-9.9,9.9v8.5c0,4.6,3.2,8.5,7.5,9.6v-9.1h3.2h0c2.1,0,3.9-1.7,3.9-3.9v-5.6
						h14.5l2.5-4.5C58,11.1,55.8,8.9,53,8.9z"/>
				</g>
				<g>
					<path class="st3" d="M53,8.9H36.3c-5.5,0-9.9,4.5-9.9,9.9v8.5c0,4.6,3.2,8.5,7.5,9.6v-9.1h3.2h0c2.1,0,3.9-1.7,3.9-3.9v-5.6
						h14.5l2.5-4.5C58,11.1,55.8,8.9,53,8.9z"/>
				</g>
			</g>
			<circle class="st1" cx="33.9" cy="27.8" r="3.2"/>
			<g>
				<path class="st4" d="M47.7,41.7c2.2,4.8-4.1,7.6-13.8,0h-4.2v9.9h-5V84H57V41.7H47.7z"/>
			</g>
			<path class="st5" d="M96.6,89.1v12.4h7.5V86.6c0-2.4-3-3.4-4.5-1.5L96.6,89.1z"/>
			<path class="st5" d="M47.3,28.2L47.3,28.2c-0.4,0-0.7-0.3-0.7-0.7V24c0-0.4,0.3-0.7,0.7-0.7l0,0c0.4,0,0.7,0.3,0.7,0.7v3.5
				C48,27.9,47.7,28.2,47.3,28.2z"/>
			<path class="st5" d="M52.3,28.2L52.3,28.2c-0.4,0-0.7-0.3-0.7-0.7V24c0-0.4,0.3-0.7,0.7-0.7h0c0.4,0,0.7,0.3,0.7,0.7v3.5
				C53,27.9,52.7,28.2,52.3,28.2z"/>
			<ellipse class="st6" cx="50" cy="31.1" rx="2" ry="0.5"/>
			<g>
				<g>
					<path class="st1" d="M51.7,61.2l1.1,6.3c0.3,1.9,2.2,3.2,4.1,2.8l14.9-2.6c1.9-0.3,3.2-2.2,2.8-4.1l-0.5-2.9
						c-0.3-1.9-2.2-3.2-4.1-2.8L51.7,61.2z"/>
				</g>
				<g>
					<path class="st1" d="M68.6,58.2l-17.9,3.2l0.9,4.9c0.5,2.7,1.8,4.7,3,4.5L70.3,68L68.6,58.2z"/>
				</g>
				<g>
					<path class="st4" d="M52,61.1l0-19.5h5c2.7,0,5,3.1,5,7l0,10.8L52,61.1z"/>
				</g>
				<path class="st5" d="M57,41.7h-9.3c0.8,1.7,0.5,3.2-0.6,4v41.2H57V41.7z"/>
				<path class="st5" d="M33.9,41.7h-4.2v9.9h-5v35.3h17.4V46.1C39.8,45.5,37,44.2,33.9,41.7z"/>
			</g>
			<path class="st5" d="M42.1,46.1l-8.2-7.2c0,0-2.5,0.8-2.5,2.8S42.1,46.1,42.1,46.1z"/>
			<path class="st5" d="M47,45.7c3-2.4,0.6-4,0.6-4s5.2-1.9,5.2,0S48.6,45,47,45.7z"/>
			
				<rect x="88" y="92.9" transform="matrix(4.490814e-11 -1 1 4.490814e-11 -1.0295 189.5634)" class="st5" width="12.4" height="4.7"/>
			<path class="st5" d="M36.3,8.9c2.4,0,9.5-2.4,11.7-4.7c0,2.7-0.9,5.5-3.4,6.3"/>
			<path class="st5" d="M44.2,8.9c2.4,0,9.5-2.4,11.7-4.7c0,2.7-0.9,5.5-3.4,6.3"/>
			<path class="st5" d="M52.6,8.9c3.9,0,9.4,0,12.1-4.7c0,2.7-1.4,14.2-9.2,14.2"/>
			<g>
				<path class="st1" d="M32.6,43.5L30,42.3c-2.5-1.1-5.4,0-6.6,2.5L0.8,94.6c-1.1,2.5,0,5.4,2.5,6.6l0,0c2.5,1.1,5.4,0,6.6-2.5
					l23.8-52.4C34.1,45.2,33.7,44,32.6,43.5z"/>
			</g>
			<path class="st4" d="M32.6,43.5L30,42.3c-2.5-1.1-5.4,0-6.6,2.5l-6.3,14l9.1,4.1l7.5-16.6C34.1,45.2,33.7,44,32.6,43.5z"/>
			<path class="st7" d="M76.4,62.9L67.5,62c-0.5,0-0.8-0.6-0.6-1.2l4.6-19.5c0.1-0.6,0.7-1,1.1-1l8.9,0.9c0.5,0,0.8,0.6,0.6,1.2
				l-4.6,19.5C77.5,62.5,76.9,62.9,76.4,62.9z"/>
		</g>
	</g>
	<circle class="st8" cx="149.8" cy="43.2" r="42.8"/>
	<polygon class="st8" points="116.2,29.8 96.6,35.5 110.4,45 	"/>
	<g>
		<path class="st9" d="M122.9,27.3c-0.2,0.5-0.3,1-0.3,1.4c0,1,1,1.7,3,1.7c1.7,0,3.2-0.2,4-0.5l0,0.6c-0.7,0.2-2.3,0.4-4,0.4
			c-2.2,0-3.7-0.7-3.7-2.1c0-0.6,0.1-1.1,0.3-1.6L122.9,27.3z M122.7,22.6c0.9,0.1,1.9,0.2,3.1,0.2c1.1,0,2.2-0.1,3.1-0.2v0.6
			c-0.8,0.1-2,0.1-3.1,0.1c-1.2,0-2.2,0-3.1-0.1V22.6z"/>
		<path class="st9" d="M138.4,24.9c-1.4,0-2.6,0.4-3.3,0.6c-0.4,0.1-0.6,0.2-0.9,0.3l-0.2-0.7c0.3,0,0.6-0.1,1-0.2
			c0.8-0.2,2.2-0.6,3.5-0.6c1.6,0,2.8,0.9,2.8,2.5c0,2.6-2.3,4-5.2,4.4l-0.4-0.6c2.8-0.4,5-1.6,5-3.9
			C140.6,25.7,139.7,24.9,138.4,24.9z M140.3,22.2l-0.1,0.6c-1.3-0.1-3.5-0.3-4.9-0.6l0.1-0.6C136.7,21.9,139.2,22.2,140.3,22.2z"/>
		<path class="st9" d="M146.2,23.6c0,0.7,0,1.9,0.1,3c0.2,2.2,0.9,3.5,1.8,3.5c0.6,0,1.2-1.1,1.6-2.5l0.5,0.5
			c-0.7,2-1.4,2.7-2.1,2.7c-1,0-2.1-1.1-2.4-4.1c-0.1-1-0.1-2.5-0.1-3.1c0-0.3,0-0.7-0.1-1l0.8,0C146.2,22.8,146.2,23.3,146.2,23.6z
			 M154.6,28.7l-0.6,0.3c-0.2-2.3-1-4.4-2-5.7l0.6-0.2C153.6,24.4,154.4,26.5,154.6,28.7z"/>
		<path class="st9" d="M162.4,24.9c-1.4,0-2.6,0.4-3.3,0.6c-0.4,0.1-0.6,0.2-0.9,0.3l-0.2-0.7c0.3,0,0.6-0.1,1-0.2
			c0.8-0.2,2.2-0.6,3.5-0.6c1.6,0,2.8,0.9,2.8,2.5c0,2.6-2.3,4-5.2,4.4l-0.4-0.6c2.8-0.4,5-1.6,5-3.9
			C164.6,25.7,163.7,24.9,162.4,24.9z M164.3,22.2l-0.1,0.6c-1.3-0.1-3.5-0.3-4.9-0.6l0.1-0.6C160.7,21.9,163.2,22.2,164.3,22.2z"/>
		<path class="st9" d="M173.7,30.5c0.3,0,0.7-0.1,1-0.1c1.5-0.3,3.2-1.5,3.2-3.7c0-1.9-1.3-3.5-3.6-3.6c-0.1,1.2-0.4,2.4-0.7,3.5
			c-0.7,2.5-1.6,3.6-2.6,3.6c-0.9,0-2-1.1-2-3c0-2.5,2.2-4.7,5-4.7c2.7,0,4.4,1.9,4.4,4.2c0,2.5-1.7,4.1-4.4,4.4L173.7,30.5z
			 M173.7,23c-2.4,0.2-4,2.3-4,4.1c0,1.7,0.8,2.4,1.4,2.4c0.5,0,1.3-0.8,2-3C173.3,25.3,173.5,24.2,173.7,23z"/>
		<path class="st9" d="M132.6,46.7c1.2,1,3,1.9,4.7,2.3c-0.1,0.1-0.3,0.3-0.4,0.5c-1.7-0.5-3.7-1.5-4.9-2.7v2.9h-0.6v-2.9
			c-1.2,1.2-3.2,2.3-4.8,2.8c-0.1-0.2-0.3-0.4-0.4-0.5c1.6-0.5,3.4-1.4,4.6-2.4h-4.4v-0.5h5v-0.9h-3.5v-3.7c-0.4,0.5-0.9,1-1.4,1.4
			c-0.1-0.1-0.3-0.3-0.4-0.4c1.3-1.1,2.3-2.6,2.8-3.7l0.6,0.1c-0.2,0.4-0.5,0.9-0.8,1.4h2.7c0.3-0.5,0.5-1.1,0.7-1.5l0.6,0.1
			c-0.2,0.5-0.5,1-0.7,1.4h4.1v0.5h-4v1h3.6v0.5h-3.6v1h3.7v0.5h-3.7v1h4.6v0.5H132v0.9h5v0.5H132.6z M131.6,40.8h-3.1v1h3.1V40.8z
			 M131.6,42.3h-3.1v1h3.1V42.3z M128.5,44.8h3.1v-1h-3.1V44.8z"/>
		<path class="st9" d="M145.6,39.7c-0.1,0.3-0.1,0.6-0.2,0.8c-0.1,0.3-0.1,0.7-0.2,1c1.9,0.3,3.3,1.7,3.3,3.7c0,2.3-1.6,3.7-4.2,4.1
			l-0.4-0.5c2.4-0.2,4-1.5,4-3.5c0-1.6-1.1-2.9-2.8-3.2c-0.4,1.5-1.1,3.1-1.7,4.1l-0.1,0.1c0.2,0.3,0.5,0.6,0.8,0.9l-0.5,0.4
			c-0.2-0.2-0.4-0.5-0.7-0.8c-0.7,0.9-1.5,1.6-2.4,1.6c-0.9,0-1.5-0.7-1.5-2c0-1.4,0.8-2.8,1.9-3.6c-0.1-0.4-0.3-0.8-0.4-1.2
			c-0.1-0.3-0.2-0.7-0.3-1l0.7-0.2c0.1,0.3,0.2,0.7,0.2,1c0.1,0.3,0.2,0.6,0.3,1c1-0.6,2.1-0.9,3.2-0.9h0.1c0.1-0.3,0.2-0.7,0.2-1
			c0-0.2,0.1-0.5,0-0.8L145.6,39.7z M142.5,46.2c-0.2-0.2-0.3-0.5-0.5-0.8c-0.3-0.5-0.7-1.3-1-2.2c-0.9,0.8-1.5,2-1.5,3
			c0,0.9,0.4,1.5,1,1.5C141.2,47.7,142,47,142.5,46.2z M142.9,45.6c0.5-0.8,1.1-2.2,1.5-3.6c-1,0-2,0.3-2.9,0.9
			c0.3,0.8,0.7,1.7,0.9,2.1C142.6,45.2,142.7,45.4,142.9,45.6L142.9,45.6z"/>
		<path class="st9" d="M156.9,41.7c-0.8,0.2-1.7,0.3-2.6,0.4c-0.1,0.5-0.2,1.1-0.4,1.6c-0.4,1.7-1.2,4.2-1.8,5.4l-0.7-0.2
			c0.7-1.2,1.5-3.6,2-5.3c0.1-0.4,0.2-0.9,0.3-1.4c-0.5,0-0.9,0.1-1.3,0.1c-0.5,0-0.9,0-1.3,0l0-0.6c0.5,0.1,1,0.1,1.4,0.1
			s0.9,0,1.4-0.1c0.1-0.5,0.2-1,0.2-1.2c0-0.3,0.1-0.6,0-0.8l0.8,0.1c-0.1,0.2-0.1,0.6-0.2,0.8c-0.1,0.3-0.1,0.7-0.2,1.1
			c0.8-0.1,1.7-0.3,2.4-0.5V41.7z M156.3,46c-0.1,0.4-0.2,0.8-0.2,1.1c0,0.6,0.3,1.2,2.2,1.2c0.8,0,1.6-0.1,2.2-0.2l0,0.6
			c-0.6,0.1-1.4,0.2-2.2,0.2c-1.8,0-2.8-0.5-2.8-1.7c0-0.4,0.1-0.8,0.2-1.3L156.3,46z M156.2,43.2c0.6-0.1,1.3-0.1,2.1-0.1
			c0.7,0,1.4,0,2,0.1l0,0.6c-0.6-0.1-1.3-0.1-2-0.1c-0.7,0-1.4,0-2.1,0.1V43.2z"/>
		<path class="st9" d="M170,39.9c-0.2,0.1-0.5,0.5-0.7,0.6c-0.8,0.8-2.6,2.2-3.5,3c-0.8,0.7-0.8,0.9,0,1.5c1.2,0.9,3.3,2.8,4.5,3.9
			l-0.5,0.5c-0.2-0.2-0.5-0.5-0.7-0.7c-0.6-0.7-2.7-2.5-3.9-3.4c-1.1-0.9-0.9-1.4,0.1-2.2c0.9-0.8,2.8-2.2,3.6-3.1
			c0.2-0.2,0.4-0.5,0.5-0.7L170,39.9z"/>
		<path class="st9" d="M126.6,59.5c-0.7,0.2-1.4,0.3-2.2,0.4c-0.6,1.7-1.7,3.7-2.6,5l-0.6-0.3c1-1.1,2.1-3.1,2.6-4.6
			c-0.4,0-0.9,0-1.3,0s-0.9,0-1.3,0l0-0.6c0.4,0,0.8,0.1,1.4,0.1c0.5,0,0.9,0,1.5-0.1c0.2-0.7,0.4-1.5,0.4-2.1l0.7,0.1
			c-0.1,0.4-0.3,1.3-0.5,1.9c0.6-0.1,1.3-0.2,2-0.5L126.6,59.5z M127.9,61.1c0,0.5,0,0.8,0,1.1c0,0.5,0.1,1.4,0.1,2.2
			c1,0.4,1.8,0.9,2.4,1.5l-0.3,0.5c-0.6-0.5-1.3-1-2.1-1.4c0,0.3,0,0.5,0,0.7c0,0.9-0.6,1.6-2,1.6c-1.2,0-2.2-0.5-2.2-1.6
			c0-1.1,1.1-1.6,2.2-1.6c0.5,0,0.9,0.1,1.3,0.2c0-1-0.1-2.3-0.1-3.2H127.9z M127.4,64.8c-0.4-0.1-0.9-0.2-1.4-0.2
			c-1,0-1.6,0.4-1.6,1.1c0,0.6,0.5,1,1.6,1c1.1,0,1.4-0.6,1.4-1.2C127.4,65.4,127.4,65.1,127.4,64.8z M128.1,59.2
			c0.9,0.4,2.1,1.1,2.7,1.6l-0.4,0.5c-0.6-0.6-1.9-1.2-2.6-1.6L128.1,59.2z"/>
		<path class="st9" d="M134.9,61.9c0.9-0.3,2.8-1,4.1-1c1.6,0,2.8,0.9,2.8,2.5c0,2.4-2.4,3.4-5.3,3.5l-0.3-0.6
			c2.5-0.1,4.9-0.8,4.9-2.9c0-1.1-0.9-1.9-2.2-1.9c-1.5,0-4.3,1.2-4.9,1.4l-0.3-0.7C134.2,62.1,134.5,62.1,134.9,61.9z"/>
		<path class="st9" d="M153.1,59.4c-1.5,0.3-3.4,0.5-4.9,0.5c-0.2,1.1-0.6,2.5-0.9,3.2c1.1-0.8,2.1-1.2,3.6-1.2
			c1.9,0,2.9,0.9,2.9,2.2c0,2.4-2.5,3.3-5.9,2.9l-0.2-0.6c2.8,0.4,5.5-0.2,5.5-2.3c0-1-0.8-1.7-2.3-1.7c-1.4,0-2.8,0.5-3.6,1.5
			c-0.2,0.2-0.3,0.3-0.4,0.6l-0.6-0.2c0.6-1.2,1.1-3,1.4-4.4h-0.3c-0.8,0-1.5,0-2.1-0.1v-0.6c0.5,0.1,1.4,0.2,2.1,0.2h0.4
			c0.1-0.4,0.1-0.7,0.2-0.9c0-0.3,0.1-0.6,0-0.9l0.7,0c-0.1,0.3-0.1,0.6-0.2,0.9c0,0.2-0.1,0.5-0.2,0.9c1.5-0.1,3.3-0.2,4.7-0.6
			V59.4z"/>
		<path class="st9" d="M159,60.3c0.1,0.2,0.2,0.3,0.3,0.5c0.2,0.3,0.4,0.8,0.6,1.3c1.2-0.5,2.7-1.1,3.6-1.1c1.5,0,2.2,0.8,2.2,1.8
			c0,1.1-0.7,1.9-2.3,1.9c-0.6,0-1.1-0.2-1.5-0.3l0-0.6c0.3,0.2,0.9,0.3,1.4,0.3c1.3,0,1.7-0.7,1.7-1.3c0-0.6-0.3-1.2-1.6-1.2
			c-0.9,0-2.1,0.5-3.3,1c0.2,0.3,0.3,0.7,0.5,1c0.6,1.3,1.1,2.9,1.4,3.9l-0.6,0.2c-0.3-1.1-0.8-2.6-1.3-3.9c-0.1-0.3-0.3-0.7-0.4-1
			c-0.8,0.4-1.6,0.8-2,1l-0.3-0.6c0.3-0.1,0.5-0.1,0.7-0.2c0.3-0.1,0.8-0.4,1.4-0.6c-0.2-0.5-0.5-0.9-0.6-1.1
			c-0.1-0.2-0.3-0.4-0.4-0.6L159,60.3z M162.1,60.9c-0.3-0.4-0.8-0.8-1.3-1.1l0.4-0.3c0.3,0.2,0.9,0.7,1.3,1.1L162.1,60.9z"/>
		<path class="st9" d="M174.4,60.9c-1.4,0-2.6,0.4-3.3,0.6c-0.4,0.1-0.6,0.2-0.9,0.3l-0.2-0.7c0.3,0,0.6-0.1,1-0.2
			c0.8-0.2,2.2-0.6,3.5-0.6c1.6,0,2.8,0.9,2.8,2.5c0,2.6-2.3,4-5.2,4.4l-0.4-0.6c2.8-0.4,5-1.6,5-3.9
			C176.6,61.7,175.7,60.9,174.4,60.9z M176.3,58.2l-0.1,0.6c-1.3-0.1-3.5-0.3-4.9-0.6l0.1-0.6C172.7,57.9,175.2,58.2,176.3,58.2z"/>
	</g>
</g>
</svg>
