<?xml version="1.0" encoding="utf-8"?>
<!-- Generator: Adobe Illustrator 22.1.0, SVG Export Plug-In . SVG Version: 6.00 Build 0)  -->
<svg version="1.1" id="レイヤー_1" xmlns="http://www.w3.org/2000/svg" xmlns:xlink="http://www.w3.org/1999/xlink" x="0px"
	 y="0px" viewBox="0 0 163 110" style="enable-background:new 0 0 163 110;" xml:space="preserve">
<style type="text/css">
	.st0{fill:#FDC67C;}
	.st1{fill:#57AB94;}
	.st2{fill:#005C4C;}
	.st3{opacity:0.5;}
	.st4{fill:#231815;}
	.st5{fill:#F7A032;}
	.st6{fill:#96B7B7;}
	.st7{fill:#B4E1FF;}
	.st8{fill:#3C3C3C;}
</style>
<g>
	<g>
		<path class="st0" d="M135.4,31.3c-1.3,0.1-3.4-0.3-4.6,0c-2.6,0.5-4.5,1.2-4.6,4.4c-0.3,12.7-0.2,26.5-0.1,39.1
			c0,3.1,2,4.4,4.3,4.4c0.1,0.3,0,0,0,0c2.4,0,4.4-1.4,4.4-4.4C134.9,61.2,133.4,44.6,135.4,31.3z"/>
		<g>
			<path class="st1" d="M126.3,35.6c0.2-3,1.9-3.9,4.6-4.3c1.2-0.2,3.3,0.2,4.6,0c-1.1,7.1-0.6,14.5-0.6,21.7c-2.9,0-5.8,0-8.8,0
				C126.2,47.3,125.9,41,126.3,35.6z"/>
		</g>
		<path class="st0" d="M130.7,31.2c8.1,0,16.2-0.7,24.4-0.9c-0.1,3.1-0.3,6.2-0.4,9.3c1.4,0,2.9,0,4.3,0c-0.1,9.5-0.1,19.1-0.1,28.6
			c-9.5,0-19,0-28.5,0C130.5,56,129.5,43.4,130.7,31.2z"/>
		<g>
			<path class="st0" d="M159,68.2c0,13.9,0,27.8,0,41.7c-3.7,0-7.3,0-11,0c0-8.9,0.1-18.5,0-27.3c0-2.3-1.4-3.3-3.2-3.3
				c-0.1-0.2,0,0,0,0c-1.8,0-3.2,1-3.3,3.3c-0.1,8.7,0,18.3,0,27.3c-3.6,0-7.3,0-11,0c0-13.9,0-27.8,0-41.7
				C140,68.2,149.5,68.2,159,68.2z"/>
		</g>
		<g>
			<g>
				<path class="st2" d="M159,68.2c0,13.9,0,27.8,0,41.7c-3.7,0-7.3,0-11,0c0-8.9,0.1-18.5,0-27.3c0-2.3-1.4-3.3-3.2-3.3
					c-0.1-0.2,0,0,0,0c-1.8,0-3.2,1-3.3,3.3c-0.1,8.7,0,18.3,0,27.3c-3.6,0-7.3,0-11,0c0-13.9,0-27.8,0-41.7
					C140,68.2,149.5,68.2,159,68.2z"/>
			</g>
		</g>
		<path class="st0" d="M151.5,30.4c-3,0-7.6,0.7-10.2,0.6c-5-0.3-7-1.9-8.3-6.6c-0.8-2.9-1.9-7.3-3-10.4c6.1-1.9,12.2-3.7,18.3-5.5
			C150.5,15.8,152.3,22.6,151.5,30.4z"/>
		<path class="st0" d="M141.8,27.1c2.1-0.1,5.6-0.5,7.9-1.1c5.5-1.3,8.1-6,7.1-11.5c-0.4-2.1-1.3-5.4-2.1-7.4c-1-2.6-2.7-3.8-5.6-3
			c-4.9,1.3-11.1,3.3-16,4.8c-2.8,0.9-3.5,2.9-3,5.5c0.4,1.9,1.4,5,2.1,6.7C134,25.6,136.9,27.3,141.8,27.1z"/>
		<path class="st0" d="M148,103.3c3.7,0,7.3,0,11,0c0,2.2,0,4.4,0,6.6c-4.2-0.1-9.1,0.2-13-0.1c-2.5-0.1-2.8-2.4-1.4-3.9
			C145.4,105.2,147.1,104.2,148,103.3z"/>
		<path class="st0" d="M130.5,103.3c3.7,0,7.3,0,11,0c0,2.2,0,4.4,0,6.6c-4.2-0.1-9.1,0.2-13-0.1c-2.5-0.1-2.8-2.4-1.4-3.9
			C127.8,105.2,129.5,104.2,130.5,103.3z"/>
		<g>
			<g>
				<path class="st3" d="M129.8,5.3c4.2-1.3,9.7-3.2,13.9-4.2c5.5-1.3,8.9,1,11,5.9c0.8,1.9,1.7,5.2,2.1,7.4c1,4.8-1,8.4-4.9,10.9
					c-0.1-3-0.5-5.9-1.2-8.8c-1.3,0.2-1.4,0.5-2.9,0.7c0.2,0,0,0,0,0c-1.5,0.2-3.6-0.4-4.2-2.5c-0.4-1.3-1-3.2-1.4-4.7
					c-4.1,1.2-8.2,2.5-12.3,3.7c-1.1-1.1-2.1-2.1-3.3-3.2C126.5,8.3,127,6.2,129.8,5.3z"/>
			</g>
			<g>
				<path class="st4" d="M129.8,5.3c4.2-1.3,9.7-3.2,13.9-4.2c5.5-1.3,8.9,1,11,5.9c0.8,1.9,1.7,5.2,2.1,7.4c1,4.8-1,8.4-4.9,10.9
					c-0.1-3-0.5-5.9-1.2-8.8c-1.3,0.2-1.4,0.5-2.9,0.7c0.2,0,0,0,0,0c-1.5,0.2-3.6-0.4-4.2-2.5c-0.4-1.3-1-3.2-1.4-4.7
					c-4.1,1.2-8.2,2.5-12.3,3.7c-1.1-1.1-2.1-2.1-3.3-3.2C126.5,8.3,127,6.2,129.8,5.3z"/>
			</g>
		</g>
		<path class="st0" d="M148,17.3c0.4,1.5,1.8,2.6,3.4,2.3s2.4-2,2-3.6c-0.4-1.6-1.8-2.6-3.5-2.2S147.6,15.8,148,17.3z"/>
		<g>
			<path class="st1" d="M139.3,31.1c-3.7,9.1,10.4,0.6,12.2-0.7c1.2-0.1,2.4-0.1,3.5-0.1c-0.1,3.1-0.3,6.2-0.4,9.3
				c1.4,0,2.9,0,4.3,0c-0.1,9.5-0.1,19.1-0.1,28.6c-9.5,0-19,0-28.5,0c0-12.2-1-24.9,0.3-37.1C133.6,31.2,136.5,31.2,139.3,31.1z"/>
		</g>
		<path d="M148,103.3c3.7,0,7.3,0,11,0c0,2.2,0,4.4,0,6.6c-4.2-0.1-9.1,0.2-13-0.1c-2.5-0.1-2.8-2.4-1.4-3.9
			C145.4,105.2,147.1,104.2,148,103.3z"/>
		<path d="M130.5,103.3c3.7,0,7.3,0,11,0c0,2.2,0,4.4,0,6.6c-4.2-0.1-9.1,0.2-13-0.1c-2.5-0.1-2.8-2.4-1.4-3.9
			C127.8,105.2,129.5,104.2,130.5,103.3z"/>
		<path d="M139.4,20.1C139.4,20.2,139.4,20.1,139.4,20.1c0.3-0.1,0.6-0.4,0.5-0.8c-0.2-0.9-0.6-2-0.8-2.9c-0.1-0.4-0.5-0.6-0.8-0.4
			c0,0,0,0,0,0c-0.4,0.1-0.5,0.4-0.4,0.8c0.2,0.9,0.6,1.9,0.8,2.8C138.7,20.1,139.1,20.2,139.4,20.1z"/>
		<path d="M135.2,21.2C135.2,21.2,135.2,21.2,135.2,21.2c0.3-0.1,0.6-0.4,0.4-0.8c-0.2-0.8-0.5-1.9-0.8-2.7
			c-0.1-0.4-0.5-0.5-0.8-0.4c0,0,0,0,0,0c-0.3,0.1-0.5,0.4-0.4,0.8c0.3,0.8,0.6,1.9,0.8,2.7C134.5,21.2,134.9,21.3,135.2,21.2z"/>
		<path class="st5" d="M136,23.3c0.1,0.4,1.4,0.1,1.7,0c0.3-0.1,1.6-0.3,1.6-0.7c-0.1-0.4-1.4-0.1-1.7,0
			C137.3,22.7,135.9,22.9,136,23.3z"/>
		<g>
			<path d="M130.7,31.2c2.9,0,5.7,0,8.6-0.1c-0.7,1.2-1.1,2.4,0,3.4c-0.2,12.7-0.1,25.4-0.1,38.1c-2.9,0-5.8,0-8.8,0
				C130.5,59.3,129.3,44.4,130.7,31.2z"/>
			<path d="M151.6,30.4c1.2-0.1,2.4-0.1,3.5-0.1c-0.1,3.1-0.3,6.2-0.4,9.3c1.4,0,2.9,0,4.3,0c-0.2,11-0.1,22-0.1,33
				c-5.1,0-10.2,0-15.4,0c0-12.5-0.7-25.3,0.1-37.8C146.8,33.9,149.2,32.3,151.6,30.4z"/>
		</g>
		<path d="M143.8,34.8c2.8-2.2,5.6-4.6,8.1-7.3c0.7,0.9,2.4,0.9,1.6,3C152.6,32.6,146.4,34.5,143.8,34.8z"/>
		<path d="M139.3,34.5c-0.9-1.2-1.3-2.4,0-3.4c-1-0.3-4.2-1.4-4.5,0.2C134.5,32.9,138.1,34,139.3,34.5z"/>
		<path d="M148,99.2c3.7,0,7.3,0,11,0c0,1.4,0,2.8,0,4.2c-3.7,0-7.3,0-11,0C148,101.9,148,100.6,148,99.2z"/>
		<path d="M130.5,99.2c3.7,0,7.3,0,11,0c0,1.4,0,2.8,0,4.2c-3.7,0-7.3,0-11,0C130.5,101.9,130.5,100.6,130.5,99.2z"/>
		<path d="M143.8,1.1c-3.6,0.7-7.7,0.4-11.1-1c0.8,2.3,1.9,4,4.4,4.5"/>
		<path d="M137.2,3.1c-3.6,0.7-7.7,0.4-11.1-1c0.8,2.3,1.9,4,4.4,4.5"/>
		<path d="M130.1,5.2c-4.2,1.2-7.7,1.8-11.4-0.9c2,5.4,5.2,10.1,11.4,9.6"/>
		<path class="st0" d="M155.1,30.3c1.2,0.4,2.9,0.5,4,1c2.5,1,3.8,2.5,3.4,5.4c-0.8,5.3-2.1,12.1-3.1,17.2c-0.5,2.8-2.7,4.1-5,3.6
			c-0.2,0.2,0,0,0,0c-2.4-0.5-4-2.1-3.5-5.2C152,45.6,153.8,37.4,155.1,30.3z"/>
		<g>
			<g>
				<path class="st1" d="M155.1,30.3c1.2,0.4,2.9,0.5,4,1c2.5,1.1,3.8,2.4,3.4,5.4c-0.8,5.5-2.2,11.7-3.1,17.3
					c-2.9-0.5-5.8-1-8.6-1.5C152.1,45.1,153.7,37.7,155.1,30.3z"/>
			</g>
		</g>
		<g>
			<path class="st0" d="M159.4,54.1c-0.3,1.3-0.4,3.1-0.8,4.3c-0.9,2.5-2.1,4-5.2,3.5c-10-1.7-21.3-3.7-31.2-5.5
				c-3-0.5-4.1-2.7-3.6-5c-0.3,0,0,0,0,0c0.4-2.4,2.1-4,5.1-3.5C135.3,49.8,147.7,52.1,159.4,54.1z"/>
		</g>
		<path class="st6" d="M116.7,51.8c2.6-0.2,5.3-0.4,7.8-0.8c0.6-0.1,0.7-0.4,0.6-1.1c-1.3-5.5-2.7-11.6-4.1-17.1
			c-0.2-0.7-0.5-0.9-1-0.9c-2.6,0.2-5.3,0.4-7.8,0.8c-0.6,0.1-0.7,0.4-0.6,1.1c1.3,5.5,2.7,11.6,4.1,17.1
			C115.9,51.6,116.1,51.9,116.7,51.8z"/>
	</g>
	<circle class="st7" cx="43.2" cy="43.4" r="42.8"/>
	<g>
		<path class="st8" d="M21.5,27.6c-0.2,0.5-0.3,1-0.3,1.4c0,1,1,1.7,3,1.7c1.7,0,3.2-0.2,4-0.5l0,0.6c-0.7,0.2-2.3,0.4-4,0.4
			c-2.2,0-3.7-0.7-3.7-2.1c0-0.6,0.1-1.1,0.3-1.6L21.5,27.6z M21.3,23c0.9,0.1,1.9,0.2,3.1,0.2c1.1,0,2.2-0.1,3.1-0.2v0.6
			c-0.8,0.1-2,0.1-3.1,0.1c-1.2,0-2.2,0-3.1-0.1V23z"/>
		<path class="st8" d="M36.9,30.8c0.3,0,0.7-0.1,1-0.1c1.5-0.3,3.2-1.5,3.2-3.7c0-1.9-1.3-3.5-3.6-3.6c-0.1,1.2-0.4,2.4-0.7,3.5
			c-0.7,2.5-1.6,3.6-2.6,3.6c-0.9,0-2-1.1-2-3c0-2.5,2.2-4.7,5-4.7c2.7,0,4.4,1.9,4.4,4.2c0,2.5-1.7,4.1-4.4,4.4L36.9,30.8z
			 M36.8,23.4c-2.4,0.2-4,2.3-4,4.1c0,1.7,0.8,2.4,1.4,2.4c0.5,0,1.3-0.8,2-3C36.5,25.7,36.7,24.5,36.8,23.4z"/>
		<path class="st8" d="M53.4,22.1v9.8h-0.6v-0.7h-6.4v0.8h-0.6v-9.9H53.4z M46.4,22.7v3.6h6.4v-3.6H46.4z M52.8,30.6v-3.7h-6.4v3.7
			H52.8z"/>
		<path class="st8" d="M59,22.1c-0.1,0.2-0.1,0.4-0.2,0.6c-0.3,1.3-0.6,3.5-0.6,4.9c0,0.8,0,1.4,0.1,2.1c0.2-0.6,0.5-1.5,0.8-2
			l0.4,0.3c-0.3,0.7-0.7,1.9-0.8,2.5c0,0.2-0.1,0.4,0,0.5c0,0.1,0,0.3,0,0.4l-0.6,0c-0.2-0.9-0.4-2.1-0.4-3.7c0-1.7,0.4-4,0.6-5
			c0-0.3,0.1-0.5,0.1-0.7L59,22.1z M67,30.6c-0.6-0.6-1.3-1.1-2-1.5c0,0.2,0,0.3,0,0.5c0,0.8-0.4,1.8-1.9,1.8
			c-1.6,0-2.4-0.6-2.4-1.6c0-0.9,0.8-1.7,2.3-1.7c0.5,0,0.9,0.1,1.3,0.2c0-1-0.1-2.4-0.1-3.4c-0.4,0-0.9,0-1.3,0
			c-0.7,0-1.3,0-1.9-0.1v-0.6c0.7,0.1,1.3,0.1,2,0.1c0.4,0,0.9,0,1.3,0c0-0.6,0-1.2,0-1.6c0-0.2,0-0.5,0-0.7h0.7
			c0,0.2-0.1,0.5-0.1,0.7c0,0.4,0,1,0,1.5c0.8-0.1,1.5-0.1,2.2-0.3v0.6c-0.7,0.1-1.4,0.2-2.2,0.2c0,1.2,0.1,2.5,0.1,3.6
			c0.9,0.4,1.7,1,2.4,1.6L67,30.6z M64.4,28.9c-0.4-0.1-0.9-0.2-1.4-0.2c-1,0-1.7,0.5-1.7,1.1c0,0.7,0.6,1.1,1.6,1.1
			c1.2,0,1.5-0.6,1.5-1.4C64.4,29.3,64.4,29.1,64.4,28.9z"/>
		<path class="st8" d="M27.7,48.8c2.9-2.4,4.8-4.3,4.8-5.9c0-1.1-0.7-2-2.1-2c-1,0-1.8,0.6-2.4,1.4l-0.5-0.4c0.8-0.9,1.7-1.6,3-1.6
			c1.7,0,2.7,1,2.7,2.6c0,1.8-2,3.8-4.4,5.7c0.5,0,1,0,1.4,0h3.4v0.6h-6V48.8z"/>
		<path class="st8" d="M41.8,39.9c-0.4,1-0.9,2.1-1.4,3.1c1.1,1,1.3,1.9,1.3,2.7c0,0.6-0.1,1.1-0.5,1.3c-0.2,0.1-0.4,0.2-0.6,0.2
			c-0.3,0-0.6,0-0.9,0c0-0.1-0.1-0.4-0.2-0.5c0.4,0,0.7,0,0.9,0c0.2,0,0.3,0,0.5-0.1c0.2-0.1,0.3-0.5,0.3-0.9c0-0.7-0.3-1.5-1.4-2.5
			c0.5-0.9,0.9-2,1.3-2.9h-2.2v9.8h-0.6V39.7h3l0.1,0L41.8,39.9z M48.4,45.6c-0.6,0.6-1.4,1.2-2.1,1.7c0.6,1,1.4,1.8,2.5,2.3
			c-0.1,0.1-0.3,0.3-0.4,0.5c-1.8-0.9-3-2.8-3.6-5.1h-1.6v4.1c0.8-0.2,1.7-0.4,2.6-0.6l0,0.5c-1.6,0.4-3.3,0.7-4.4,1l-0.2-0.6
			l1.4-0.3v-9.3h5.3v5.1h-2.7c0.2,0.7,0.5,1.4,0.8,2c0.6-0.5,1.4-1.1,1.9-1.6L48.4,45.6z M43.2,40.3V42h4.2v-1.8H43.2z M43.2,44.4
			h4.2v-1.8h-4.2V44.4z"/>
		<path class="st8" d="M51.9,41.4c0.6-0.1,3-0.3,5.2-0.5c1.3-0.1,2.3-0.2,3.1-0.2v0.6c-0.7,0-1.8,0-2.3,0.2c-1.8,0.6-2.8,2.6-2.8,4
			c0,2.5,2.4,3.3,4.2,3.3l-0.2,0.6c-2,0-4.6-1.1-4.6-3.8c0-1.9,1.2-3.5,2.5-4.2c-1,0.1-4.7,0.5-5.9,0.7l-0.1-0.7
			C51.4,41.5,51.7,41.5,51.9,41.4z M59.6,44.7l-0.5,0.2c-0.3-0.5-0.6-1.2-1-1.7l0.4-0.2C58.8,43.4,59.3,44.1,59.6,44.7z M60.9,44.2
			l-0.4,0.2c-0.3-0.6-0.7-1.2-1-1.7l0.4-0.2C60.1,42.9,60.6,43.6,60.9,44.2z"/>
		<path class="st8" d="M20.1,64c-0.2,1.1-0.5,2.3-0.9,3c-0.1-0.1-0.3-0.2-0.5-0.2c0.4-0.7,0.7-1.8,0.9-2.9L20.1,64z M21.4,63v5.1
			h-0.5v-5c-0.7,0-1.4,0.1-2,0.1l0-0.6l0.8,0c0.3-0.4,0.6-0.8,0.9-1.3c-0.4-0.5-1-1.2-1.6-1.8l0.3-0.4c0.1,0.1,0.3,0.2,0.4,0.3
			c0.4-0.7,0.9-1.6,1.2-2.3l0.5,0.2c-0.4,0.8-0.9,1.8-1.4,2.4c0.3,0.3,0.6,0.7,0.9,1c0.5-0.8,1-1.6,1.3-2.3l0.5,0.2
			c-0.7,1.2-1.6,2.7-2.5,3.8c0.7,0,1.4-0.1,2.1-0.1c-0.2-0.4-0.4-0.8-0.6-1.2l0.4-0.2c0.5,0.7,1,1.7,1.1,2.3l-0.5,0.2
			c0-0.2-0.1-0.4-0.2-0.7L21.4,63z M22.4,63.9c0.4,0.7,0.7,1.6,0.8,2.2l-0.5,0.2c-0.1-0.6-0.4-1.5-0.8-2.2L22.4,63.9z M28.8,58.7
			c-0.5,1.1-1.2,2.1-2,3c0.9,0.9,2,1.6,3.1,2c-0.1,0.1-0.3,0.3-0.4,0.5c-1.1-0.5-2.1-1.2-3-2.1c-0.9,0.8-1.9,1.5-3,1.9
			c-0.1-0.1-0.2-0.4-0.4-0.5c1-0.4,2.1-1.1,3-1.9c-0.6-0.6-1.1-1.3-1.5-2c-0.4,0.5-0.9,1-1.4,1.4c-0.1-0.1-0.3-0.3-0.4-0.3
			c1.3-1,2.1-2.4,2.6-3.5l0.6,0.1c-0.2,0.4-0.4,0.8-0.6,1.2h3l0.1,0L28.8,58.7z M24.2,65.8c1.6,0.4,3.6,1.3,4.7,1.9l-0.3,0.5
			c-1.1-0.6-3.1-1.5-4.7-1.9L24.2,65.8z M24.9,59.2c0.4,0.7,0.9,1.5,1.5,2.1c0.7-0.7,1.2-1.4,1.6-2.2H25L24.9,59.2z M25.5,63.5
			c0.8,0.4,1.9,0.9,2.4,1.4l-0.4,0.4c-0.6-0.4-1.6-1-2.4-1.4L25.5,63.5z"/>
		<path class="st8" d="M35.5,60c-0.1,0.2-0.3,0.5-0.5,0.8c0,0.3,0,0.7-0.1,1c1.4-1.2,2.8-1.6,3.9-1.6c1.5,0,3,1.1,3,2.9
			c0,2.4-1.9,3.5-4.3,4l-0.3-0.6c2-0.3,3.9-1.2,3.9-3.4c0-0.9-0.7-2.3-2.5-2.3c-1.4,0-2.8,0.7-3.9,1.8c0,0.6,0,1.1,0,1.6
			c0,1.2,0,1.7,0,2.7l0,0.6h-0.7c0-0.1,0-0.4,0-0.6c0-1.1,0-1.6,0-2.8c0-0.3,0-0.7,0-1.2c-0.6,0.9-1.5,2.2-2.2,3.2l-0.4-0.5
			c0.7-0.8,2.1-2.8,2.7-3.7c0-0.5,0.1-0.9,0.1-1.4c-0.5,0.1-1.6,0.2-2.4,0.3L32,60.1c0.2,0,0.4,0,0.6,0c0.4,0,1.2-0.1,1.9-0.2
			c0-0.6,0.1-1.1,0.1-1.3c0-0.2,0-0.5,0-0.8l0.8,0c0,0.3-0.1,1-0.2,1.9l0.1,0L35.5,60z"/>
		<path class="st8" d="M47.5,57.9c-0.3,1-0.5,2.9-0.6,3.8c0.4-1.4,1.8-3.2,3.4-3.2c1.5,0,2.6,1.6,2.6,4c0,3.2-2.1,4.6-4.9,5.1
			l-0.4-0.6c2.5-0.4,4.7-1.5,4.7-4.6c0-1.9-0.6-3.4-2-3.4c-1.5,0-3,2.2-3.2,3.7c-0.1,0.5-0.1,0.9,0,1.6l-0.6,0
			c0-0.4-0.1-1.1-0.1-1.8c0-1.1,0.3-3.1,0.4-3.9c0-0.3,0.1-0.6,0.1-0.9L47.5,57.9z"/>
		<path class="st8" d="M61.2,57.9c0,0.2-0.1,0.3-0.1,0.5c0,0.3-0.2,1.2-0.3,2c0.6,0,1.2-0.1,1.5-0.1c0.9,0,1.8,0.3,1.8,1.9
			c0,1.4-0.2,3.3-0.7,4.2c-0.4,0.8-0.9,0.9-1.6,0.9c-0.4,0-1-0.1-1.4-0.2l-0.1-0.7c0.5,0.2,1.1,0.3,1.5,0.3c0.5,0,0.9-0.1,1.1-0.7
			c0.4-0.9,0.6-2.5,0.6-3.9c0-1.2-0.6-1.4-1.3-1.4c-0.3,0-0.9,0-1.5,0.1c-0.4,1.7-1.2,4.2-2.5,6.4l-0.6-0.3c1.2-1.7,2.2-4.5,2.5-6.1
			c-0.7,0.1-1.4,0.1-1.8,0.2c-0.2,0-0.6,0.1-0.9,0.1l-0.1-0.7c0.3,0,0.6,0,0.9,0c0.4,0,1.2-0.1,2-0.1c0.2-0.8,0.3-1.8,0.3-2.6
			L61.2,57.9z M65.3,59.3c0.7,0.9,1.8,3.1,2.2,4.1L67,63.7c-0.4-1.2-1.4-3.2-2.2-4.2L65.3,59.3z"/>
	</g>
</g>
</svg>
