<?xml version="1.0" encoding="utf-8"?>
<!-- Generator: Adobe Illustrator 22.1.0, SVG Export Plug-In . SVG Version: 6.00 Build 0)  -->
<svg version="1.1" id="レイヤー_1" xmlns="http://www.w3.org/2000/svg" xmlns:xlink="http://www.w3.org/1999/xlink" x="0px"
	 y="0px" viewBox="0 0 273 116" style="enable-background:new 0 0 273 116;" xml:space="preserve">
<style type="text/css">
	.st0{fill:#FDC67C;}
	.st1{fill:#57AB94;}
	.st2{fill:#005C4C;}
	.st3{opacity:0.5;}
	.st4{fill:#231815;}
	.st5{fill:#F7A032;}
	.st6{fill:#96B7B7;}
	.st7{fill:#B4E1FF;}
	.st8{fill:#3C3C3C;}
	.st9{clip-path:url(#SVGID_2_);}
	.st10{fill:#C8995C;}
	.st11{fill:#341F0B;}
	.st12{fill:#F8C9A1;}
	.st13{fill:#F8D688;}
	.st14{fill:#7C7C7C;}
	.st15{fill:#F1F1F1;}
</style>
<g>
	<g>
		<path class="st0" d="M136.8,36.9c1.3,0.1,3.4-0.3,4.6,0c2.6,0.5,4.5,1.2,4.6,4.4c0.3,12.7,0.2,26.5,0.1,39.1c0,3.1-2,4.4-4.3,4.4
			c-0.1,0.3,0,0,0,0c-2.4,0-4.4-1.4-4.4-4.4C137.4,66.9,138.9,50.3,136.8,36.9z"/>
		<g>
			<path class="st1" d="M146,41.2c-0.2-3-1.9-3.9-4.6-4.3c-1.2-0.2-3.3,0.2-4.6,0c1.1,7.1,0.6,14.5,0.6,21.7c2.9,0,5.8,0,8.8,0
				C146.1,52.9,146.3,46.7,146,41.2z"/>
		</g>
		<path class="st0" d="M141.5,36.8c-8.1,0-16.2-0.7-24.4-0.9c0.1,3.1,0.3,6.2,0.4,9.3c-1.4,0-2.9,0-4.3,0c0.1,9.5,0.1,19.1,0.1,28.6
			c9.5,0,19,0,28.5,0C141.8,61.7,142.8,49,141.5,36.8z"/>
		<g>
			<path class="st0" d="M113.3,73.9c0,13.9,0,27.8,0,41.7c3.7,0,7.3,0,11,0c0-8.9-0.1-18.5,0-27.3c0-2.3,1.4-3.3,3.2-3.3
				c0.1-0.2,0,0,0,0c1.8,0,3.2,1,3.3,3.3c0.1,8.7,0,18.3,0,27.3c3.6,0,7.3,0,11,0c0-13.9,0-27.8,0-41.7
				C132.3,73.9,122.8,73.9,113.3,73.9z"/>
		</g>
		<g>
			<g>
				<path class="st2" d="M113.3,73.9c0,13.9,0,27.8,0,41.7c3.7,0,7.3,0,11,0c0-8.9-0.1-18.5,0-27.3c0-2.3,1.4-3.3,3.2-3.3
					c0.1-0.2,0,0,0,0c1.8,0,3.2,1,3.3,3.3c0.1,8.7,0,18.3,0,27.3c3.6,0,7.3,0,11,0c0-13.9,0-27.8,0-41.7
					C132.3,73.9,122.8,73.9,113.3,73.9z"/>
			</g>
		</g>
		<path class="st0" d="M120.7,36c3,0,7.6,0.7,10.2,0.6c5-0.3,7-1.9,8.3-6.6c0.8-2.9,1.9-7.3,3-10.4c-6.1-1.9-12.2-3.7-18.3-5.5
			C121.8,21.4,119.9,28.2,120.7,36z"/>
		<path class="st0" d="M130.4,32.7c-2.1-0.1-5.6-0.5-7.9-1.1c-5.5-1.3-8.1-6-7.1-11.5c0.4-2.1,1.3-5.4,2.1-7.4c1-2.6,2.7-3.8,5.6-3
			c4.9,1.3,11.1,3.3,16,4.8c2.8,0.9,3.5,2.9,3,5.5c-0.4,1.9-1.4,5-2.1,6.7C138.3,31.2,135.4,33,130.4,32.7z"/>
		<path class="st0" d="M124.3,109c-3.7,0-7.3,0-11,0c0,2.2,0,4.4,0,6.6c4.2-0.1,9.1,0.2,13-0.1c2.5-0.1,2.8-2.4,1.4-3.9
			C126.9,110.8,125.2,109.8,124.3,109z"/>
		<path class="st0" d="M141.8,109c-3.7,0-7.3,0-11,0c0,2.2,0,4.4,0,6.6c4.2-0.1,9.1,0.2,13-0.1c2.5-0.1,2.8-2.4,1.4-3.9
			C144.5,110.8,142.7,109.8,141.8,109z"/>
		<g>
			<g>
				<path class="st3" d="M142.5,11c-4.2-1.3-9.7-3.2-13.9-4.2c-5.5-1.3-8.9,1-11,5.9c-0.8,1.9-1.7,5.2-2.1,7.4
					c-1,4.8,1,8.4,4.9,10.9c0.1-3,0.5-5.9,1.2-8.8c1.3,0.2,1.4,0.5,2.9,0.7c-0.2,0,0,0,0,0c1.5,0.2,3.6-0.4,4.2-2.5
					c0.4-1.3,1-3.2,1.4-4.7c4.1,1.2,8.2,2.5,12.3,3.7c1.1-1.1,2.1-2.1,3.3-3.2C145.8,14,145.2,11.8,142.5,11z"/>
			</g>
			<g>
				<path class="st4" d="M142.5,11c-4.2-1.3-9.7-3.2-13.9-4.2c-5.5-1.3-8.9,1-11,5.9c-0.8,1.9-1.7,5.2-2.1,7.4
					c-1,4.8,1,8.4,4.9,10.9c0.1-3,0.5-5.9,1.2-8.8c1.3,0.2,1.4,0.5,2.9,0.7c-0.2,0,0,0,0,0c1.5,0.2,3.6-0.4,4.2-2.5
					c0.4-1.3,1-3.2,1.4-4.7c4.1,1.2,8.2,2.5,12.3,3.7c1.1-1.1,2.1-2.1,3.3-3.2C145.8,14,145.2,11.8,142.5,11z"/>
			</g>
		</g>
		<path class="st0" d="M124.3,23c-0.4,1.5-1.8,2.6-3.4,2.3c-1.6-0.4-2.4-2-2-3.6c0.4-1.6,1.8-2.6,3.5-2.2
			C124,19.9,124.7,21.4,124.3,23z"/>
		<g>
			<path class="st1" d="M132.9,36.7c3.7,9.1-10.4,0.6-12.2-0.7c-1.2-0.1-2.4-0.1-3.5-0.1c0.1,3.1,0.3,6.2,0.4,9.3
				c-1.4,0-2.9,0-4.3,0c0.1,9.5,0.1,19.1,0.1,28.6c9.5,0,19,0,28.5,0c0-12.2,1-24.9-0.3-37.1C138.7,36.8,135.8,36.9,132.9,36.7z"/>
		</g>
		<path d="M124.3,109c-3.7,0-7.3,0-11,0c0,2.2,0,4.4,0,6.6c4.2-0.1,9.1,0.2,13-0.1c2.5-0.1,2.8-2.4,1.4-3.9
			C126.9,110.8,125.2,109.8,124.3,109z"/>
		<path d="M141.8,109c-3.7,0-7.3,0-11,0c0,2.2,0,4.4,0,6.6c4.2-0.1,9.1,0.2,13-0.1c2.5-0.1,2.8-2.4,1.4-3.9
			C144.5,110.8,142.7,109.8,141.8,109z"/>
		<path d="M132.9,25.8C132.9,25.8,132.9,25.8,132.9,25.8c-0.3-0.1-0.6-0.4-0.5-0.8c0.2-0.9,0.6-2,0.8-2.9c0.1-0.4,0.5-0.6,0.8-0.4
			c0,0,0,0,0,0c0.4,0.1,0.5,0.4,0.4,0.8c-0.2,0.9-0.6,1.9-0.8,2.8C133.5,25.7,133.2,25.8,132.9,25.8z"/>
		<path d="M137.1,26.8C137.1,26.9,137.1,26.8,137.1,26.8c-0.3-0.1-0.6-0.4-0.4-0.8c0.2-0.8,0.5-1.9,0.8-2.7c0.1-0.4,0.5-0.5,0.8-0.4
			c0,0,0,0,0,0c0.3,0.1,0.5,0.4,0.4,0.8c-0.3,0.8-0.6,1.9-0.8,2.7C137.8,26.8,137.4,26.9,137.1,26.8z"/>
		<path class="st5" d="M136.3,28.9c-0.1,0.4-1.4,0.1-1.7,0c-0.3-0.1-1.6-0.3-1.6-0.7s1.4-0.1,1.7,0C135,28.3,136.4,28.5,136.3,28.9z
			"/>
		<g>
			<path d="M141.5,36.8c-2.9,0-5.7,0-8.6-0.1c0.7,1.2,1.1,2.4,0,3.4c0.2,12.7,0.1,25.4,0.1,38.1c2.9,0,5.8,0,8.8,0
				C141.8,64.9,143,50,141.5,36.8z"/>
			<path d="M120.7,36c-1.2-0.1-2.4-0.1-3.5-0.1c0.1,3.1,0.3,6.2,0.4,9.3c-1.4,0-2.9,0-4.3,0c0.2,11,0.1,22,0.1,33
				c5.1,0,10.2,0,15.4,0c0-12.5,0.7-25.3-0.1-37.8C125.5,39.6,123.1,38,120.7,36z"/>
		</g>
		<path d="M128.5,40.4c-2.8-2.2-5.6-4.6-8.1-7.3c-0.7,0.9-2.4,0.9-1.6,3C119.7,38.2,125.9,40.1,128.5,40.4z"/>
		<path d="M133,40.1c0.9-1.2,1.3-2.4,0-3.4c1-0.3,4.2-1.4,4.5,0.2S134.2,39.6,133,40.1z"/>
		<path d="M124.3,104.8c-3.7,0-7.3,0-11,0c0,1.4,0,2.8,0,4.2c3.7,0,7.3,0,11,0C124.3,107.6,124.3,106.2,124.3,104.8z"/>
		<path d="M141.8,104.8c-3.7,0-7.3,0-11,0c0,1.4,0,2.8,0,4.2c3.7,0,7.3,0,11,0C141.8,107.6,141.8,106.2,141.8,104.8z"/>
		<path d="M128.5,6.7c3.6,0.7,7.7,0.4,11.1-1c-0.8,2.3-1.9,4-4.4,4.5"/>
		<path d="M135.1,8.7c3.6,0.7,7.7,0.4,11.1-1c-0.8,2.3-1.9,4-4.4,4.5"/>
		<path d="M142.2,10.9c4.2,1.2,7.7,1.8,11.4-0.9c-2,5.4-5.2,10.1-11.4,9.6"/>
		<path class="st0" d="M117.1,35.9c-1.2,0.4-2.9,0.5-4,1c-2.5,1-3.8,2.5-3.4,5.4c0.8,5.3,2.1,12.1,3.1,17.2c0.5,2.8,2.7,4.1,5,3.6
			c0.2,0.2,0,0,0,0c2.4-0.5,4-2.1,3.5-5.2C120.3,51.2,118.5,43.1,117.1,35.9z"/>
		<g>
			<g>
				<path class="st1" d="M117.1,35.9c-1.2,0.4-2.9,0.5-4,1c-2.5,1.1-3.8,2.4-3.4,5.4c0.8,5.5,2.2,11.7,3.1,17.3
					c2.9-0.5,5.8-1,8.6-1.5C120.2,50.7,118.6,43.4,117.1,35.9z"/>
			</g>
		</g>
		<g>
			<path class="st0" d="M112.9,59.7c0.3,1.3,0.4,3.1,0.8,4.3c0.9,2.5,2.1,4,5.2,3.5c10-1.7,21.3-3.7,31.2-5.5c3-0.5,4.1-2.7,3.6-5
				c0.3,0,0,0,0,0c-0.4-2.4-2.1-4-5.1-3.5C137,55.4,124.6,57.7,112.9,59.7z"/>
		</g>
		<path class="st6" d="M155.6,57.5c-2.6-0.2-5.3-0.4-7.8-0.8c-0.6-0.1-0.7-0.4-0.6-1.1c1.3-5.5,2.7-11.6,4.1-17.1
			c0.2-0.7,0.5-0.9,1-0.9c2.6,0.2,5.3,0.4,7.8,0.8c0.6,0.1,0.7,0.4,0.6,1.1c-1.3,5.5-2.7,11.6-4.1,17.1
			C156.4,57.3,156.1,57.5,155.6,57.5z"/>
	</g>
	<circle class="st7" cx="43.7" cy="43.3" r="42.8"/>
	<polygon class="st7" points="77.3,29.8 96.9,35.6 83.1,45 	"/>
	<g>
		<path class="st8" d="M29.7,26.7c1-0.3,2-0.5,2.8-0.5c1.7,0,2.8,0.9,2.8,2.2c0,1.5-1,2.3-2.5,2.6c-0.5,0.1-1.1,0.1-1.4,0.1
			l-0.2-0.6c0.4,0,0.9,0,1.4-0.1c1.1-0.2,2.1-0.8,2.1-2.1c0-1.1-1-1.7-2.2-1.7c-1,0-1.9,0.2-2.8,0.6c0,1,0,2.1,0,2.7
			c0,0.9-0.3,1.2-0.9,1.2c-0.8,0-2.3-0.9-2.3-1.8c0-0.9,1.3-1.9,2.6-2.5v-0.6c0-0.6,0-1.2,0-1.9c-0.4,0-0.7,0.1-1,0.1
			c-0.6,0-1,0-1.4-0.1l0-0.6c0.6,0.1,1,0.1,1.4,0.1c0.3,0,0.7,0,1,0c0-0.7,0-1.4,0-1.6c0-0.2,0-0.5-0.1-0.7h0.7c0,0.2,0,0.4,0,0.7
			c0,0.3,0,0.8,0,1.5c0.9-0.1,1.9-0.3,2.6-0.5l0,0.6c-0.7,0.2-1.7,0.3-2.6,0.5c0,0.7,0,1.4,0,1.9V26.7z M29.2,30c0-0.5,0-1.5,0-2.5
			c-1.1,0.5-1.9,1.3-1.9,1.9c0,0.6,1,1.2,1.5,1.2C29.1,30.7,29.2,30.4,29.2,30z M33.8,23c0.8,0.4,2.1,1.3,2.6,1.8L36,25.2
			c-0.6-0.6-1.8-1.4-2.6-1.8L33.8,23z"/>
		<path class="st8" d="M40.8,26.2c0.9-0.3,2.8-1,4.1-1c1.6,0,2.8,0.9,2.8,2.5c0,2.4-2.4,3.4-5.3,3.5l-0.3-0.6
			c2.5-0.1,4.9-0.8,4.9-2.9c0-1.1-0.9-1.9-2.2-1.9c-1.5,0-4.3,1.2-4.9,1.4l-0.3-0.7C40.2,26.4,40.5,26.3,40.8,26.2z"/>
		<path class="st8" d="M55.5,30.3c0-0.5,0.4-0.8,0.8-0.8c0.4,0,0.8,0.3,0.8,0.8s-0.4,0.8-0.8,0.8C55.9,31.1,55.5,30.8,55.5,30.3z
			 M55.9,23.3l0-1.2h1l0,1.2l-0.2,5h-0.5L55.9,23.3z"/>
		<path class="st8" d="M20.6,45.9c-0.2,1.1-0.5,2.3-0.9,3c-0.1-0.1-0.3-0.2-0.5-0.2c0.4-0.7,0.7-1.8,0.9-2.9L20.6,45.9z M22.8,43
			c0.5,0.8,1.1,1.8,1.2,2.4l-0.5,0.2c-0.1-0.2-0.2-0.5-0.3-0.7L22,44.9V50h-0.5V45C20.7,45,20,45,19.4,45l0-0.6l0.7,0
			c0.3-0.4,0.6-0.8,0.9-1.2c-0.4-0.5-1.1-1.3-1.7-1.8l0.3-0.4c0.1,0.1,0.3,0.2,0.4,0.4c0.4-0.7,0.9-1.6,1.2-2.3l0.5,0.2
			c-0.4,0.8-0.9,1.8-1.4,2.4c0.4,0.3,0.7,0.7,0.9,1c0.5-0.8,1-1.6,1.4-2.3l0.5,0.2c-0.7,1.2-1.8,2.7-2.6,3.8c0.7,0,1.5-0.1,2.3-0.1
			c-0.2-0.4-0.5-0.8-0.7-1.2L22.8,43z M23.1,45.8c0.4,0.7,0.7,1.7,0.8,2.3l-0.5,0.2c-0.1-0.6-0.4-1.6-0.8-2.3L23.1,45.8z M27.3,41.4
			v2.1H30V44h-5.8v-0.5h2.5v-2.1h-2.9v-0.5h2.9v-1.8h0.6v1.8h3v0.5H27.3z M24.6,45.5h5v4.4h-0.6v-0.6h-3.9V50h-0.6V45.5z M25.2,46.1
			v2.7h3.9v-2.7H25.2z"/>
		<path class="st8" d="M35.6,45.8c-0.2-0.4-0.7-1.2-1.1-1.8V50h-0.6v-6.2c-0.4,1.5-1.1,3-1.7,3.9c-0.1-0.1-0.2-0.4-0.4-0.5
			c0.8-1,1.6-3.1,2-4.8h-1.7v-0.5h1.8v-2.7h0.6v2.7H36v0.5h-1.5v1c0.3,0.4,1.2,1.7,1.5,2.1L35.6,45.8z M43,48h-0.8v1.3
			c0,0.3-0.1,0.5-0.3,0.6C41.6,50,41.1,50,40.3,50c0-0.1-0.1-0.3-0.2-0.5c0.6,0,1.2,0,1.4,0c0.2,0,0.2-0.1,0.2-0.2V48h-4.5v2h-0.6
			v-2h-0.9v-0.5h0.9v-3H39v-0.9h-3.1v-0.5h1.8v-1h-1.2v-0.5h1.2v-1h-1.5v-0.5h1.5v-1h0.5v1h2.3v-1H41v1h1.6v0.5H41v1h1.4v0.5H41v1
			h1.8v0.5h-3.3v0.9h2.6v3H43V48z M37.1,44.9v1H39v-1H37.1z M37.1,47.5H39v-1.1h-1.9V47.5z M38.2,41.6h2.3v-1h-2.3V41.6z M38.2,43.1
			h2.3v-1h-2.3V43.1z M39.6,44.9v1h2.1v-1H39.6z M41.6,47.5v-1.1h-2.1v1.1H41.6z"/>
		<path class="st8" d="M48.3,46c-0.2-0.3-0.8-1.1-1.2-1.6V50h-0.6v-5.7c-0.4,1.3-1.1,2.7-1.6,3.5c-0.1-0.2-0.2-0.4-0.3-0.5
			c0.7-0.9,1.5-2.6,1.9-4.1h-1.8v-0.5h1.9v-2.1c-0.6,0.1-1.2,0.2-1.7,0.3c0-0.1-0.1-0.3-0.2-0.4c1.3-0.2,2.7-0.6,3.5-0.9l0.5,0.4
			c-0.4,0.2-0.9,0.3-1.5,0.5v2.3h1.6v0.5h-1.6v0.7c0.4,0.3,1.3,1.4,1.6,1.7L48.3,46z M55.4,44c-0.5,0.5-1.2,1.1-1.7,1.5
			c0.5,1.3,1.2,2.4,1.9,3.1c-0.1,0.1-0.3,0.3-0.4,0.4c-1.2-1.3-2.3-3.7-2.8-6.1H52c-0.3,0.3-0.6,0.6-1,0.9c2.1,1.8,2.2,5.1,1.3,5.9
			c-0.3,0.3-0.6,0.3-1,0.3c-0.2,0-0.5,0-0.9,0c0-0.1,0-0.3-0.1-0.5c0.3,0,0.7,0,0.9,0c0.3,0,0.5,0,0.7-0.2c0.4-0.4,0.6-1.5,0.3-2.7
			c-1,1.1-2.7,2.2-4.2,2.7c-0.1-0.1-0.2-0.3-0.3-0.4c1.5-0.5,3.4-1.7,4.3-2.8c-0.1-0.3-0.3-0.6-0.4-1c-0.8,0.8-2.1,1.6-3.2,2
			c-0.1-0.1-0.2-0.3-0.3-0.4c1.1-0.4,2.4-1.2,3.2-1.9c-0.2-0.3-0.4-0.5-0.7-0.8c-0.6,0.4-1.3,0.8-1.9,1c-0.1-0.1-0.2-0.3-0.3-0.4
			c1-0.4,2.1-1,2.9-1.7h-2.1v-0.5h5.7v0.5h-2.1c0.2,0.7,0.4,1.5,0.7,2.2c0.5-0.4,1.1-1,1.5-1.4L55.4,44z M49.2,42.2h-0.5v-1.8h3
			v-1.3h0.6v1.3h3.1v1.8h-0.6v-1.3h-5.6V42.2z"/>
		<path class="st8" d="M59.5,40.4c0,0.2-0.1,0.4-0.2,0.6c-0.4,2-0.8,4.5-0.3,6.7c0.2-0.6,0.4-1.4,0.7-2.1l0.4,0.2
			c-0.2,0.7-0.6,1.9-0.7,2.5c0,0.2,0,0.4,0,0.5c0,0.1,0,0.2,0,0.3l-0.5,0.1c-0.2-0.7-0.6-2.2-0.6-3.7c0-1.9,0.4-3.7,0.5-4.7
			c0-0.2,0-0.5,0.1-0.6L59.5,40.4z M65.4,40.2c0,0.2,0,0.4,0,0.6c0,0.3,0,1.2,0,1.9c0.8-0.1,1.5-0.2,2.2-0.3l0,0.7
			c-0.6,0.1-1.4,0.2-2.2,0.3v0.3c0,2.7,0.1,4.8-2.5,6.2l-0.6-0.5c0.3-0.1,0.7-0.4,1-0.6c1.5-1.2,1.5-2.7,1.5-5.2v-0.3
			c-0.5,0-1,0-1.4,0c-0.6,0-1.5,0-2-0.1v-0.6c0.5,0.1,1.3,0.1,2,0.1c0.5,0,0.9,0,1.4,0c0-0.8-0.1-1.7-0.1-1.9c0-0.3-0.1-0.5-0.1-0.6
			H65.4z M66.6,41.7c-0.2-0.5-0.5-1.2-0.7-1.7l0.4-0.1c0.2,0.4,0.5,1.2,0.7,1.7L66.6,41.7z M67.6,39.5c0.2,0.4,0.5,1.1,0.7,1.6
			l-0.5,0.2c-0.2-0.5-0.5-1.2-0.7-1.7L67.6,39.5z"/>
		<path class="st8" d="M28,59.2c0.6-0.1,3.1-0.3,5.2-0.5c1.3-0.1,2.3-0.2,3.1-0.2v0.6c-0.7,0-1.8,0-2.3,0.2c-1.8,0.6-2.8,2.6-2.8,4
			c0,2.5,2.4,3.3,4.2,3.3l-0.2,0.6c-2,0-4.6-1.1-4.6-3.8c0-1.9,1.2-3.5,2.5-4.2c-1.1,0.1-4.7,0.5-6,0.7L27,59.3
			C27.4,59.3,27.7,59.3,28,59.2z"/>
		<path class="st8" d="M47.2,58.7c-0.2,0.1-0.4,0.3-0.6,0.4c-0.6,0.4-2.4,2-3.4,2.9c0.6-0.2,1.3-0.3,1.9-0.3c1.9,0,3.3,1.2,3.3,2.7
			c0,1.9-1.7,3-4,3c-1.6,0-2.4-0.7-2.4-1.6c0-0.7,0.6-1.4,1.7-1.4c1.5,0,2.2,1,2.4,2.1c1.1-0.4,1.8-1.1,1.8-2.3
			c0-1.2-1.2-2.1-2.8-2.1c-2,0-3.1,0.8-4.7,2.3l-0.5-0.5c1.1-0.9,2.6-2.2,3.3-2.8c0.7-0.6,2.3-2,2.9-2.5c-0.6,0-3.4,0.2-4,0.2
			c-0.2,0-0.5,0-0.7,0.1l0-0.7c0.2,0,0.5,0,0.7,0c0.6,0,3.6-0.1,4.2-0.2c0.3,0,0.4,0,0.5-0.1L47.2,58.7z M45.5,66.8
			c-0.1-1-0.8-1.8-1.8-1.8c-0.6,0-1.1,0.3-1.1,0.8c0,0.6,0.8,1,1.8,1C44.8,66.9,45.2,66.9,45.5,66.8z"/>
		<path class="st8" d="M55.1,66.6c0-0.4,0.3-0.7,0.6-0.7c0.3,0,0.6,0.3,0.6,0.7c0,0.4-0.3,0.6-0.6,0.6C55.4,67.3,55.1,67,55.1,66.6z
			 M55.4,59.2l0-1h0.7l0,1L56,64.7h-0.5L55.4,59.2z"/>
		<path class="st8" d="M59.3,66.6c0-0.4,0.3-0.7,0.6-0.7c0.3,0,0.6,0.3,0.6,0.7c0,0.4-0.3,0.6-0.6,0.6C59.6,67.3,59.3,67,59.3,66.6z
			 M59.6,59.2l0-1h0.7l0,1l-0.1,5.5h-0.5L59.6,59.2z"/>
	</g>
	<g>
		<defs>
			
				<rect id="SVGID_1_" x="244.8" y="23.5" transform="matrix(-1 4.490041e-11 -4.490041e-11 -1 514.601 121.6674)" width="25" height="74.7"/>
		</defs>
		<clipPath id="SVGID_2_">
			<use xlink:href="#SVGID_1_"  style="overflow:visible;"/>
		</clipPath>
		<g class="st9">
			<g>
				<path class="st10" d="M275.6,58.7c1,1,2.7,2.7,3.5,3.8c2.2,3,4.8,4.9,8.1,6.7c0.3,0.2,0.6,0.3,0.8,0.6c0.3,0.6-0.2,1.4-0.8,1.6
					s-1.4,0-2.1-0.1c-1.2-0.3-2.3-0.6-3.5-0.9l0,0.1c2.4,6.9,0.4,14.4-1.8,21.3c-0.2,0.7-0.5,1.5-1,2.1s-1.2,1-2,0.9
					c-0.4-0.1-0.7-0.3-0.9-0.6c-0.1-0.2-0.1-0.4-0.1-0.7c0-2.5,0-5.1,0-7.6c0,0-7.4,2.4-11.2,2c0,0-1.3-0.1-1.7,0.2
					c0,0.7,0.2,1.1,0.4,1.6c0.8,2.4,2.5,6.3,2.1,7c-0.4,0.8-1.5,1.3-2.2,0.8c-0.6-0.5-1-0.9-1.5-1.5c-4.7-6.1-6.5-13.9-7.6-21.5
					c0,0,1,8.2,0-0.3c-1-8.6,1.4-12.4,1.4-12.4l-0.1-0.2c-1.7-0.3-3.4-0.8-5-1.5c-1.1-0.5-2.3-1-3.2-1.9c-2-2.1-2-5.3-1.7-8.1
					c0.5-4.1,1.3-8.1,2.7-12l0-0.8c-0.6-2.2-0.7-4.5-0.3-6.8c0.1-0.4,0.2-0.8,0.4-1.2c0.6-0.9,1.9-1.1,3-1c1.5,0.1,3.1,0.5,4.5,1.2
					c0,0,3.4-1.3,5-1.6c2.5-0.5,7.4-0.3,7.4-0.3c0.8-1.2,1.9-2.1,3.2-2.8c0.7-0.4,1.6-0.7,2.3-0.3c0.4,0.2,0.6,0.7,0.8,1.1
					c1.4,2.9,2.4,6,2.8,9.2l0.1,0c3.2,3.4,5.2,7.4,6.5,11.9c0.5,1.8,0.8,3.8,0.2,5.6c-0.6,1.7-1.9,3.1-3.5,4.1
					C279,57.5,277.3,58.1,275.6,58.7"/>
				<path class="st11" d="M254.7,74.3"/>
				<path class="st11" d="M253.5,74.2c-0.9-7,0.2-9.8,0.6-11.3c0.3-1.2-1.2-1.5-3.7-2.2c-1.5-0.4-2.8-1.3-3.8-2.4
					c-2.1-2.4-1.9-5.9-1.6-8.8c0.4-3.5,1.2-7,2.2-10.4c0.2-0.5,0.4-1.1,0.4-1.6c-0.1-0.7-0.3-1.4-0.4-2c-0.3-1.7-0.2-3.5,0.1-5.2
					c0.8-3.9,6.1-2.4,8.6-1.2c-0.2,0-0.3,0-0.5,0c2-0.7,4.1-1.5,6.3-1.8c2.1-0.2,4.3-0.2,6.5-0.2c-0.2,0.1-0.4,0.2-0.6,0.3
					c1.3-1.7,5.1-5.4,7-2.5c0.9,1.4,1.5,3.1,2,4.7c0.6,1.7,1,3.5,1.2,5.3c-0.1-0.2-0.3-0.3-0.4-0.5c0.3,0.1,0.6,0.5,0.8,0.8
					c0.4,0.4,0.7,0.8,1,1.2c0.7,0.8,1.3,1.7,1.8,2.6c1.1,1.8,2,3.8,2.7,5.8c0.7,2,1.3,4,1.1,6.1c-0.1,2-1.1,3.7-2.5,5.1
					c-1.9,1.7-4.3,2.5-6.6,3.3c-0.7,0.3-1.3-0.9-0.5-1.1c3.4-1.1,7.8-2.7,8.4-6.8c0.3-1.9-0.3-3.8-0.8-5.6c-0.6-1.8-1.3-3.6-2.2-5.3
					c-0.5-1-1.1-1.9-1.8-2.8c-0.3-0.4-0.6-0.8-1-1.2c-0.2-0.2-0.3-0.4-0.5-0.6c-0.1-0.1-0.2-0.2-0.3-0.3c-0.2-0.2,0-0.1,0-0.1
					c-0.2-0.1-0.4-0.3-0.4-0.5c-0.3-2.2-0.8-4.4-1.6-6.4c-0.4-1-0.8-2-1.3-2.9c-0.5-1-1.3-0.8-2.2-0.3c-0.9,0.5-1.6,1.1-2.3,1.8
					c-0.4,0.4-0.6,1.1-1.3,1.1c-1,0-2.1,0-3.1,0c-1.4,0-2.9,0.1-4.3,0.4c-1.3,0.3-2.6,0.7-3.8,1.2c-0.3,0.1-0.6,0.3-0.9,0.3
					c-0.4,0.1-0.8-0.2-1.2-0.3c-0.5-0.2-1-0.4-1.5-0.5c-0.9-0.2-1.9-0.4-2.8-0.4c-1.1,0.1-1.7,0.5-1.9,1.6c-0.4,2.1-0.3,4.2,0.2,6.2
					c0.1,0.5,0.2,1.1,0.1,1.6c-0.3,1-0.7,2-0.9,3c-0.6,2.1-1,4.3-1.4,6.4c-0.3,1.9-0.6,3.9-0.4,5.9c0.2,1.9,0.9,3.7,2.5,4.8
					c1.6,1.1,3.7,1.7,5.6,2.2c0.6,0.2,1.8,0.1,2,1c0.1,0.4-0.4,0.9-0.5,1.3c-1.4,3.9-1.2,8.9-0.8,11.1c0.5,4.1,1.3,8.1,2.6,12
					c0.7,2.1,1.5,4.1,2.6,6c0.5,0.9,1.1,1.9,1.7,2.7c0.6,0.8,1.2,1.8,2.1,2.3c0.3,0.2,0.6,0.1,0.9-0.1c0.2-0.1,0.3-0.3,0.4-0.4
					c0,0,0,0,0-0.1c0-0.5-0.2-1.1-0.4-1.6c-0.5-1.6-1.1-3.1-1.7-4.7c-0.2-0.6-0.9-1.9-0.2-2.4c0.5-0.4,1.3-0.3,1.8-0.3
					c1.3,0,2.6,0,3.9-0.2c1.7-0.3,3.3-0.6,4.9-1.1c0.6-0.2,1.2-0.3,1.7-0.5c0.2-0.1,0.3-0.1,0.5-0.2c0.1,0,0.3-0.1,0.1,0
					c0.5-0.1,0.9,0.1,0.9,0.6c0,2.4,0,4.8,0,7.3c0,0.6,0.1,1.1,0.8,0.9c0.5-0.1,0.9-0.5,1.2-0.9c0.6-0.9,0.8-2,1.1-3
					c1.4-4.3,2.5-8.8,2.5-13.3c0-1.3-0.1-2.5-0.4-3.7c-0.1-0.6-0.3-1.2-0.4-1.8c-0.1-0.5-0.4-0.9-0.1-1.4c0.2-0.2,0.4-0.3,0.7-0.2
					c1.2,0.3,2.3,0.6,3.5,0.9c0.5,0.1,1,0.3,1.5,0.2c0.4-0.1,0.9-0.6,0.4-0.9c-0.3-0.3-0.8-0.4-1.1-0.7c-0.4-0.2-0.8-0.5-1.2-0.7
					c-0.8-0.5-1.6-1-2.4-1.6c-1.5-1.1-2.8-2.4-3.9-3.9c-1.1-1.4-2.4-2.8-3.7-4c-0.6-0.5,0.4-1.3,0.9-0.8l0,0
					c1.2,1.1,2.3,2.3,3.3,3.6c1.1,1.4,2.2,2.7,3.5,3.8c1.3,1.1,2.8,2,4.2,2.8c0.7,0.4,1.4,0.7,1.6,1.6c0.1,0.7-0.3,1.4-0.9,1.8
					c-0.8,0.5-1.9,0.3-2.8,0.1c-1.2-0.3-2.4-0.6-3.6-0.9c0.2-0.1,0.5-0.1,0.7-0.2c0,0,0,0,0,0.1c0-0.2,0-0.4,0.1-0.6
					c1.7,4.9,1.3,10.1,0.1,15c-0.6,2.5-1.3,4.9-2.1,7.3c-0.4,1-0.9,2-1.9,2.6c-0.9,0.5-2.1,0.4-2.7-0.4c-0.4-0.5-0.3-1.2-0.3-1.9
					c0-0.8,0-1.5,0-2.3c0-1.6,0-3.2,0-4.8c0.3,0.2,0.6,0.4,0.9,0.6c-1.8,0.6-3.6,1.1-5.4,1.4c-1.4,0.3-2.8,0.6-4.3,0.6
					c-0.6,0-1.2,0-1.8,0c-0.4,0-1-0.1-1.4,0.2c0.1-0.2,0.2-0.3,0.3-0.5c0,0.6,0.3,1.1,0.5,1.7c0.2,0.6,0.4,1.1,0.6,1.7
					c0.4,1.1,0.8,2.1,1.1,3.2c0.2,0.6,0.5,1.4,0.2,2.1c-0.4,1-1.6,1.6-2.6,1.3c-1.2-0.4-2.1-1.8-2.8-2.8c-0.8-1.2-1.6-2.5-2.3-3.8
					c-1.4-2.6-2.3-5.5-3.1-8.3C254.5,80.4,253.9,77.3,253.5,74.2z"/>
			</g>
			<g>
				<path class="st11" d="M271.3,45c0.3,0.2,0.6,0.4,1,0.5c0.4,0.1,0.8,0,1-0.2c0.5-0.4,0.3-1.2,0.1-1.7c-0.2-0.5-0.5-1-1-1.3
					s-1.2-0.4-1.6,0c-0.4,0.3-0.5,0.9-0.5,1.4c0.1,0.7,0.5,1.4,1.1,1.6"/>
				<path class="st11" d="M271.5,44.8c0.3,0.2,0.7,0.4,1.1,0.5c0.6,0,1-0.4,1-1c0-0.6-0.4-1.3-0.9-1.8c-0.7-0.7-1.9-0.6-2,0.5
					c-0.1,0.8,0.3,1.6,1,1.9c0.2,0.1,0.1,0.4-0.1,0.3c-0.9-0.4-1.5-1.5-1.2-2.5c0.3-1.1,1.5-1.4,2.4-0.7c0.8,0.5,1.4,1.9,1.1,2.8
					c-0.4,1.2-1.8,0.8-2.6,0.3C271,45,271.3,44.7,271.5,44.8L271.5,44.8z"/>
			</g>
			<g>
				<path class="st11" d="M258.6,46.9c-0.2,0.3-0.4,0.6-0.7,0.8c-0.3,0.2-0.7,0.3-1,0.2c-0.6-0.2-0.8-0.9-0.8-1.6
					c0-0.6,0.1-1.2,0.4-1.6c0.3-0.5,0.9-0.8,1.5-0.6c0.5,0.1,0.8,0.6,1,1.1c0.2,0.7,0.1,1.4-0.4,1.9"/>
				<path class="st11" d="M258.7,47.1c-0.5,0.7-1.6,1.7-2.4,0.8c-0.7-0.7-0.6-2.3-0.1-3.1c0.5-0.9,1.7-1.1,2.4-0.3
					c0.7,0.8,0.6,2.1-0.1,2.9c-0.2,0.2-0.4-0.1-0.2-0.3c0.6-0.6,0.6-1.6,0.1-2.3c-0.6-0.9-1.7-0.4-2,0.5c-0.2,0.6-0.3,1.4,0,2
					c0.5,1.2,1.6,0.2,2.1-0.4C258.5,46.6,258.8,46.9,258.7,47.1L258.7,47.1z"/>
			</g>
			<g>
				<path class="st11" d="M265.9,48.9c0.8-0.4,1.4-1.2,1.6-2.1c0.1-0.4,0.1-0.7-0.1-1c-0.1-0.2-0.3-0.3-0.5-0.4
					c-0.7-0.3-1.6-0.2-2.3,0.2c-0.3,0.1-0.7,0.3-0.9,0.6c-0.4,0.6-0.1,1.4,0.4,1.9C264.4,48.6,265.1,48.8,265.9,48.9"/>
				<path class="st11" d="M265.8,48.7c0.8-0.4,1.3-1.2,1.5-2c0.2-1.3-1.3-1.4-2.2-1.2c-0.9,0.3-1.9,0.9-1.3,2
					c0.4,0.8,1.4,1.1,2.2,1.3c0.2,0.1,0.1,0.4-0.1,0.3c-1.1-0.3-2.4-0.8-2.6-2c-0.2-1.2,1-1.8,2-2c1-0.2,2.5,0,2.5,1.3
					c0,1.1-0.8,2.1-1.7,2.7C265.7,49.2,265.6,48.9,265.8,48.7L265.8,48.7z"/>
			</g>
			<g>
				<path class="st12" d="M268.4,49.3c0,1.2-0.3,2.2-0.6,3.3c-0.3,1-0.9,2.1-1.9,2.2c-0.6,0.1-1.3-0.3-1.7-0.7
					c-1.2-1.1-1.9-2.6-2.6-4.1l-0.2-0.4c1.5,0.6,3.2,0.8,4.7,0.5l0,0c1.2-0.2,2.2-0.7,3.1-1.5"/>
				<path class="st11" d="M268.7,49.3c-0.1,1.3-0.3,2.8-0.9,4c-0.4,1-1.3,2-2.5,1.8c-1.2-0.2-2.1-1.3-2.8-2.3
					c-0.7-1-1.1-2.1-1.6-3.2c-0.1-0.3,0.2-0.6,0.5-0.5c1.5,0.6,3,0.8,4.5,0.5c-0.1,0.1-0.2,0.3-0.3,0.4c0,0,0,0,0,0
					c0-0.2,0.1-0.4,0.3-0.4c1.1-0.2,2.1-0.7,3-1.4c0.4-0.3,0.8,0.3,0.5,0.6c-1,0.8-2.1,1.3-3.3,1.6c0.1-0.1,0.2-0.3,0.3-0.4
					c0,0,0,0,0,0c0,0.2-0.1,0.4-0.3,0.4c-1.7,0.3-3.4,0.1-4.9-0.5c0.2-0.2,0.3-0.3,0.5-0.5c0.9,1.7,1.5,4,3.4,4.9
					c2.3,1.1,2.9-3.7,3-5C268,48.8,268.7,48.8,268.7,49.3L268.7,49.3z"/>
			</g>
			<g>
				<path class="st13" d="M249.8,36.1c0.5-0.8,1-1.5,1.3-2.3c0.2-0.5,0.8-1.6,1-2c0.4-0.7-1-0.8-1.5-0.9c-0.4-0.1-0.8,0-1.1,0.4
					c-0.2,0.4-0.2,0.9-0.1,1.3C249.7,33.7,249.8,36.1,249.8,36.1z"/>
				<path class="st13" d="M249.7,36c0.4-0.6,0.8-1.2,1.1-1.9c0.2-0.4,0.4-0.9,0.6-1.3c0.2-0.4,0.5-0.7,0.6-1.1
					c0.2-0.6-0.7-0.6-1.1-0.7c-1.7-0.4-1.1,1.8-1,2.8c0.1,0.7,0.1,1.5,0.2,2.2c0,0.2-0.3,0.3-0.4,0.1c-0.1-1.1-0.2-2.3-0.3-3.4
					c-0.1-0.6-0.2-1.3,0.2-1.8c0.4-0.5,0.9-0.4,1.5-0.3c0.4,0.1,0.9,0.1,1.2,0.4c0.3,0.3,0.1,0.7-0.1,1c-0.3,0.6-0.6,1.1-0.8,1.7
					c-0.4,0.9-0.9,1.6-1.3,2.4C249.8,36.4,249.5,36.2,249.7,36z"/>
			</g>
			<g>
				<path class="st13" d="M273.4,27.5c-0.1-0.2-0.2-0.4-0.3-0.4c-0.1,0-0.2,0.1-0.3,0.1c-0.7,0.6-1.3,1.3-1.8,2
					c-0.1,0.1-0.1,0.3-0.1,0.4c0,0.1,0.1,0.2,0.3,0.3c1.1,0.9,3.2,2.9,3.4,2.8C274.8,32.7,274,29,273.4,27.5z"/>
				<path class="st13" d="M273.3,27.6c-0.2-0.5-0.7,0.1-0.9,0.3c-0.3,0.3-0.6,0.6-0.9,1c-0.3,0.4-0.5,0.7-0.1,1.1
					c0.2,0.2,0.4,0.3,0.6,0.5c0.4,0.4,0.9,0.8,1.3,1.2c0.3,0.3,0.7,0.5,1,0.8c0,0,0.1,0.1,0.1,0.1c0,0-0.1,0.1-0.1,0
					c0-0.2,0-0.3,0-0.5c-0.1-0.5-0.1-0.9-0.2-1.4C273.9,29.6,273.6,28.6,273.3,27.6c-0.1-0.2,0.2-0.4,0.3-0.2
					c0.4,1.1,0.7,2.3,0.9,3.4c0.1,0.5,0.2,1,0.2,1.5c0,0.2,0.1,0.5-0.1,0.6c-0.2,0.1-0.4,0-0.6-0.1c-0.5-0.3-0.9-0.7-1.3-1.1
					c-0.5-0.4-1-0.9-1.5-1.3c-0.4-0.3-0.8-0.5-0.6-1.1c0.3-0.7,1-1.5,1.6-2c0.5-0.4,0.9-0.7,1.2,0C273.7,27.7,273.4,27.8,273.3,27.6
					z"/>
			</g>
			<path class="st11" d="M265.9,48.8c0.1,0.4,0.2,0.7,0.3,1.1c0,0.2-0.3,0.3-0.4,0.1c-0.1-0.4-0.2-0.9-0.2-1.3
				c0-0.2,0.3-0.3,0.4-0.1c0.1,0.4,0.2,0.9,0.2,1.3c-0.1,0-0.2,0-0.4,0.1c0-0.3-0.1-0.7-0.2-1C265.5,48.7,265.8,48.5,265.9,48.8
				L265.9,48.8z"/>
			<path class="st14" d="M266.6,46.1c-0.2-0.2-0.5-0.3-0.8-0.3c-0.2,0-0.3-0.4-0.1-0.4c0.4,0,0.8,0.1,1.2,0.4
				C267.1,46,266.8,46.2,266.6,46.1L266.6,46.1z"/>
			<circle class="st15" cx="271.9" cy="42.7" r="0.5"/>
			<circle class="st15" cx="257.7" cy="44.9" r="0.5"/>
		</g>
	</g>
	<path class="st10" d="M267.2,62.5c0.7-0.5,1.3-0.9,2-1.4c0.5-0.3,1-0.7,1.5-0.9c0.6-0.2,1,0.1,1.1,0.7c0.1,0.5-0.1,0.8-0.4,1.1
		c-0.8,1-1.8,2-2.8,2.8c-0.5,0.4-0.9,0.8-1.5,1.1L267.2,62.5z"/>
	<path class="st11" d="M257.6,67.9c1.6-0.8,3.1-1.8,4.7-2.6c1.7-0.8,3.3-1.7,4.8-2.8c0.7-0.5,1.3-0.9,2-1.4c0.5-0.3,1-0.7,1.5-0.9
		c0.6-0.2,1,0.1,1.1,0.7c0.1,0.5-0.1,0.8-0.4,1.1c-0.8,1-1.8,2-2.8,2.8c-0.5,0.4-0.9,0.8-1.5,1.1c-0.5,0.3-0.4,1.5,0.5,1.1
		c1.6-0.9,2.9-2.3,4.1-3.6c0.4-0.4,0.8-0.8,1-1.3c0.4-0.8,0.3-1.8-0.2-2.5c-1.2-1.6-3.2-0.2-4.4,0.6c-0.9,0.7-1.9,1.3-2.8,2
		c-1.1,0.7-2.2,1.2-3.3,1.8c-1.7,0.8-4.3,2.3-4.7,2.6c-0.4,0.2-0.7,0.7-0.5,1C257,68.1,257.3,68,257.6,67.9z"/>
</g>
</svg>
