<?xml version="1.0" encoding="utf-8"?>
<!-- Generator: Adobe Illustrator 22.1.0, SVG Export Plug-In . SVG Version: 6.00 Build 0)  -->
<svg version="1.1" id="レイヤー_1" xmlns="http://www.w3.org/2000/svg" xmlns:xlink="http://www.w3.org/1999/xlink" x="0px"
	 y="0px" viewBox="0 0 298 156" style="enable-background:new 0 0 298 156;" xml:space="preserve">
<style type="text/css">
	.st0{fill:#B4E1FF;}
	.st1{fill:#3C3C3C;}
	.st2{fill:#E6E6E6;}
	.st3{fill:#005A4B;}
	.st4{fill:#F4C17B;}
	.st5{fill:#55A48E;}
	.st6{opacity:0.5;fill:#040000;}
	.st7{fill:#221714;}
	.st8{fill:#040000;}
	.st9{fill:#ED9A36;}
	.st10{fill:#92B2B2;}
	.st11{fill:#CE9E5D;}
	.st12{fill:#351F0B;}
	.st13{fill:#F2F2F2;}
	.st14{fill:#FFDB8A;}
	.st15{fill:#7C7C7C;}
</style>
<g>
	<circle class="st0" cx="43.1" cy="43" r="42.8"/>
	<polygon class="st0" points="76.7,29.6 96.2,35.3 82.5,44.7 	"/>
	<g>
		<path class="st1" d="M15.9,22.2l0.7,0.1c-0.1,0.2-0.1,0.4-0.2,0.7c-0.2,0.7-0.6,2.5-1.1,3.8c-0.4,1.1-1.1,2.2-1.8,3.2l-0.6-0.3
			c0.8-1,1.4-2.3,1.8-3.2C15.2,25.3,15.7,23.5,15.9,22.2z M18.8,22.3l0.6-0.2c0.5,0.8,1.2,2.4,1.7,3.7c0.5,1.2,1.2,3,1.5,4.1L22,30
			c-0.3-1.1-0.9-2.8-1.4-4.1C20.1,24.7,19.4,23.1,18.8,22.3z M22,22.5l-0.5,0.2c-0.2-0.5-0.7-1.2-1-1.7l0.5-0.2
			C21.3,21.3,21.7,22,22,22.5z M23.2,22l-0.5,0.2c-0.3-0.5-0.7-1.2-1-1.7l0.4-0.2C22.5,20.8,23,21.6,23.2,22z"/>
		<path class="st1" d="M34.6,21.4c-0.8,0.8-2,1.8-3.2,2.6v5.3c0,0.4,0,0.9,0.1,1.1h-0.7c0-0.2,0-0.7,0-1.1v-4.9
			c-1.3,0.7-3,1.5-4.7,2l-0.4-0.6c2-0.5,4-1.4,5.3-2.2c1.2-0.8,2.5-1.8,3.1-2.6L34.6,21.4z"/>
		<path class="st1" d="M46.8,26.8c-1.3-0.7-3.6-1.6-4.9-2l0,4.3c0,0.4,0,0.9,0.1,1.3h-0.7c0-0.3,0.1-0.8,0.1-1.3v-7
			c0-0.3,0-0.8-0.1-1.1H42c0,0.3-0.1,0.9-0.1,1.1v2.1c1.6,0.5,3.8,1.3,5.2,2L46.8,26.8z"/>
		<path class="st1" d="M61,28.1h-2.8v2.2c0,0.4-0.1,0.6-0.4,0.6c-0.3,0.1-1,0.1-2,0.1c0-0.2-0.1-0.4-0.2-0.5c0.9,0,1.6,0,1.8,0
			c0.2,0,0.3-0.1,0.3-0.2v-2.2h-7.3v-0.5h7.3v-1.1h-6.1v-3.8h3.8v-1h-4.7v-0.5h4.7v-1h0.6v1h4.8v0.5h-4.8v1h3.9v3.8h-1.6v1.1H61
			V28.1z M52.1,24.3h3.3v-1.2h-3.3V24.3z M52.1,26h3.3v-1.2h-3.3V26z M52.7,28.4c0.7,0.5,1.6,1.2,2,1.6l-0.5,0.4
			c-0.4-0.5-1.2-1.2-1.9-1.7L52.7,28.4z M55.9,23.1v1.2h3.3v-1.2H55.9z M59.3,24.8h-3.3V26h3.3V24.8z"/>
		<path class="st1" d="M72.8,30c0,0.5-0.1,0.7-0.5,0.8c-0.4,0.1-1,0.1-2.2,0.1c0-0.2-0.1-0.4-0.2-0.6c0.9,0,1.8,0,2,0
			c0.2,0,0.3-0.1,0.3-0.3v-2.8h-3.6v3.7H68v-3.7h-3.3c-0.2,1.4-0.6,2.8-1.5,3.8c-0.1-0.1-0.3-0.3-0.4-0.4c1.3-1.5,1.5-3.6,1.5-5.3
			V21h8.6V30z M68,26.6v-2.3h-3.2v1c0,0.4,0,0.9,0,1.3H68z M64.8,21.5v2.3H68v-2.3H64.8z M72.2,21.5h-3.6v2.3h3.6V21.5z M72.2,26.6
			v-2.3h-3.6v2.3H72.2z"/>
		<path class="st1" d="M16.6,40c-0.1,0.1-0.2,0.2-0.3,0.3c-0.4,0.7-1.6,2.3-3,3.3l-0.5-0.4c1.2-0.7,2.4-2.1,2.9-2.9H8.5
			c-0.4,0-0.9,0-1.3,0v-0.7c0.4,0.1,0.9,0.1,1.3,0.1h7.1c0.2,0,0.5,0,0.6-0.1L16.6,40z M11.8,41.5c0,3.4-0.4,5.5-3.3,6.8l-0.6-0.5
			c0.3-0.1,0.7-0.3,1-0.5c2.1-1.2,2.3-3.2,2.3-5.2c0-0.2,0-0.5,0-0.7H11.8z"/>
		<path class="st1" d="M27.3,40c0.1,0,0.2,0,0.2,0c-0.1-0.1-0.1-0.3-0.1-0.5c0-0.7,0.6-1.3,1.3-1.3c0.7,0,1.3,0.6,1.3,1.3
			c0,0.7-0.6,1.3-1.3,1.3c-0.2,0-0.4-0.1-0.6-0.2l0,0c-0.3,1.3-0.9,3.3-1.8,4.5c-1.1,1.4-2.4,2.4-4.7,3.1l-0.5-0.6
			c2.3-0.6,3.6-1.6,4.7-2.9c0.9-1.1,1.5-3,1.7-4.2H21c-0.4,0-0.7,0-1.1,0V40c0.3,0,0.7,0.1,1.1,0.1H27.3z M29.6,39.6
			c0-0.5-0.4-0.9-0.9-0.9s-0.9,0.4-0.9,0.9s0.4,0.8,0.9,0.8S29.6,40,29.6,39.6z"/>
		<path class="st1" d="M34.3,39.2c0,0.2,0,0.6,0,0.8v4c0,0.3,0,0.7,0,0.8h-0.7c0-0.2,0-0.5,0-0.8v-4c0-0.2,0-0.6,0-0.8H34.3z
			 M39.9,39.1c0,0.3,0,0.6,0,0.9v1.7c0,3.1-0.3,3.9-1.2,5c-0.8,1-1.9,1.5-2.8,1.8l-0.5-0.5c1-0.3,2.1-0.8,2.9-1.7c0.9-1,1-2.1,1-4.6
			V40c0-0.3,0-0.7-0.1-0.9H39.9z"/>
		<path class="st1" d="M50.2,41.1c-0.8,0.2-1.7,0.3-2.6,0.4c-0.1,0.5-0.2,1.1-0.4,1.6c-0.4,1.7-1.2,4.2-1.8,5.4l-0.7-0.2
			c0.7-1.2,1.5-3.6,2-5.3c0.1-0.4,0.2-0.9,0.3-1.4c-0.5,0-0.9,0.1-1.3,0.1c-0.5,0-0.9,0-1.3,0l0-0.6c0.5,0.1,1,0.1,1.4,0.1
			c0.4,0,0.9,0,1.4-0.1c0.1-0.5,0.2-1,0.2-1.2c0-0.3,0.1-0.6,0-0.8l0.8,0.1c-0.1,0.2-0.1,0.6-0.2,0.8c-0.1,0.3-0.1,0.7-0.2,1.1
			c0.8-0.1,1.7-0.2,2.4-0.4V41.1z M49.6,45.4c-0.1,0.4-0.2,0.8-0.2,1.1c0,0.6,0.3,1.2,2.2,1.2c0.8,0,1.6-0.1,2.2-0.2l0,0.6
			c-0.6,0.1-1.4,0.2-2.2,0.2c-1.8,0-2.8-0.5-2.8-1.7c0-0.4,0.1-0.8,0.2-1.3L49.6,45.4z M49.5,42.6c0.6-0.1,1.3-0.1,2.1-0.1
			c0.7,0,1.4,0,2,0.1l0,0.6c-0.6-0.1-1.3-0.1-2-0.1c-0.7,0-1.4,0-2.1,0.1V42.6z M52.9,41.2c-0.2-0.5-0.7-1.2-1-1.7l0.5-0.2
			c0.3,0.4,0.7,1.1,1,1.6L52.9,41.2z M53.6,38.8c0.3,0.4,0.8,1.2,1,1.6l-0.5,0.2c-0.3-0.5-0.7-1.2-1-1.7L53.6,38.8z"/>
		<path class="st1" d="M61.1,38.8c0,0.2-0.1,0.3-0.1,0.5c0,0.3-0.2,1.2-0.3,2c0.6,0,1.2-0.1,1.5-0.1c0.9,0,1.8,0.3,1.8,1.9
			c0,1.4-0.2,3.3-0.7,4.2c-0.4,0.8-0.9,0.9-1.6,0.9c-0.4,0-1-0.1-1.4-0.2l-0.1-0.7c0.5,0.2,1.1,0.3,1.5,0.3c0.5,0,0.9-0.1,1.1-0.7
			c0.4-0.9,0.6-2.5,0.6-3.9c0-1.2-0.6-1.4-1.3-1.4c-0.3,0-0.9,0-1.5,0.1c-0.4,1.7-1.2,4.2-2.5,6.4L57.3,48c1.2-1.7,2.2-4.5,2.5-6.1
			c-0.7,0.1-1.4,0.1-1.8,0.2c-0.2,0-0.6,0.1-0.9,0.1l-0.1-0.7c0.3,0,0.6,0,0.9,0c0.4,0,1.2-0.1,2-0.1c0.2-0.8,0.3-1.8,0.3-2.6
			L61.1,38.8z M65.2,40.2c0.7,0.9,1.8,3.1,2.2,4.1l-0.6,0.3c-0.4-1.2-1.4-3.2-2.2-4.2L65.2,40.2z"/>
		<path class="st1" d="M71.7,44.5c1.2-1.1,2.5-1.6,4.1-1.6c1.7,0,2.9,1,2.9,2.4c0,2.1-2,3.4-6.1,3.1l-0.2-0.6
			c3.8,0.4,5.6-0.8,5.6-2.5c0-1-1-1.8-2.3-1.8c-1.7,0-3,0.6-3.9,1.7c-0.1,0.2-0.2,0.4-0.3,0.5l-0.6-0.1c0.2-1,0.6-3.6,0.6-4.7
			l0.7,0.1C72,41.8,71.8,43.7,71.7,44.5z M72.6,38.8c1,0.3,3.5,0.8,4.5,0.9L77,40.4c-1.1-0.1-3.6-0.7-4.5-0.9L72.6,38.8z"/>
		<path class="st1" d="M28.3,56.3c-0.3,0.9-0.7,1.9-1.2,2.7v7.9h-0.6v-7c-0.4,0.6-0.8,1.2-1.2,1.6c-0.1-0.1-0.3-0.4-0.4-0.5
			c1.1-1.2,2.1-3.1,2.7-4.9L28.3,56.3z M32.3,62.9c-0.1,0.8-0.4,1.6-1,2.4c1.3,0.6,2.9,0.9,4.7,1.1c-0.1,0.1-0.3,0.4-0.3,0.5
			c-1.8-0.2-3.5-0.6-4.7-1.2c-0.6,0.5-1.6,1-2.9,1.4c-0.1-0.1-0.2-0.4-0.3-0.5c1.2-0.3,2.1-0.7,2.7-1.2c-0.8-0.5-1.4-1.1-1.9-1.9
			l0.5-0.2c0.4,0.7,1,1.3,1.8,1.7c0.6-0.6,0.9-1.3,1-2.1h-3v-4.4h3v-1.2h-3.5v-0.5h7.4v0.5h-3.4v1.2h2.9v4.4H32.3z M29.3,60.5h2.5
			V59h-2.5V60.5z M31.8,62.4c0-0.3,0-0.5,0-0.8v-0.7h-2.5v1.5H31.8z M34.7,60.9h-2.3v0.7c0,0.3,0,0.5,0,0.8h2.4V60.9z M32.4,59v1.5
			h2.3V59H32.4z"/>
		<path class="st1" d="M40.9,59.7h2.5v0.6h-2.5v1c0.5,0.4,2,1.7,2.4,2L43,63.8c-0.4-0.4-1.4-1.3-2-1.9v5.1h-0.6v-5.8
			c-0.7,1.6-1.7,3.2-2.6,4.1c-0.1-0.1-0.2-0.4-0.3-0.5c1-0.9,2.2-2.8,2.8-4.4h-2.5v-0.6h2.7v-2.4c-0.8,0.2-1.7,0.3-2.5,0.4
			c0-0.1-0.1-0.3-0.2-0.5c1.8-0.2,4-0.6,5.1-1.1l0.4,0.4c-0.6,0.2-1.4,0.4-2.3,0.6V59.7z M44.3,57.5h0.6V64h-0.6V57.5z M47.9,56.3
			v9.8c0,0.5-0.2,0.7-0.5,0.8c-0.3,0.1-0.9,0.1-2,0.1c0-0.1-0.1-0.4-0.2-0.6c0.9,0,1.6,0,1.8,0c0.2,0,0.3-0.1,0.3-0.3v-9.8H47.9z"/>
		<path class="st1" d="M54.9,65.3c0-0.5,0.4-0.8,0.8-0.8c0.4,0,0.8,0.3,0.8,0.8s-0.4,0.8-0.8,0.8C55.3,66.1,54.9,65.8,54.9,65.3z
			 M55.2,58.3l0-1.2h1l0,1.2l-0.2,5h-0.5L55.2,58.3z"/>
	</g>
	<polygon class="st2" points="81.4,124.1 105.4,80.1 150.2,75.9 174.2,58.1 210.8,67.8 232.1,89.4 262,95.5 280.7,124.1 	"/>
	<g>
		<path class="st3" d="M146.8,80.3v-6.6h-15.6V84h11.9C145.2,84,146.8,82.3,146.8,80.3z"/>
		<g>
			<path class="st4" d="M124.1,38.5h-4.1c-2.3,0-4.1,1.9-4.1,4.1v33.3c0,2.3,1.9,4.1,4.1,4.1h0c2.3,0,4.1-1.9,4.1-4.1V38.5z"/>
			<g>
				<path class="st5" d="M115.8,42.6c0-2.3,1.9-4.1,4.1-4.1h4.1v20.7h-8.3V42.6z"/>
			</g>
			<polygon class="st4" points="119.9,38.5 142.7,38.5 142.7,46.8 146.8,46.8 146.8,73.6 119.9,73.6 			"/>
			<g>
				<path class="st4" d="M136.4,73.6v31.5H126V83.2c0-1.7-1.4-3.1-3.1-3.1h0c-1.7,0-3.1,1.4-3.1,3.1v21.9h-10.3V81.5
					c0-4.3,3.5-7.8,7.8-7.8H136.4z"/>
			</g>
			<g>
				<g>
					<path class="st3" d="M136.4,73.6v31.5H126V83.2c0-1.7-1.4-3.1-3.1-3.1h0c-1.7,0-3.1,1.4-3.1,3.1v21.9h-10.3V81.5
						c0-4.3,3.5-7.8,7.8-7.8H136.4z"/>
				</g>
			</g>
			<path class="st4" d="M139.2,38.5h-9.7c-4.6,0-8.3-3.7-8.3-8.3V19h18V38.5z"/>
			<path class="st4" d="M129.5,34.8h7.7c4.6,0,8.3-3.7,8.3-8.3v-7c0-2.3-1.9-4.1-4.1-4.1h-15.9c-2.3,0-4.1,1.9-4.1,4.1v7
				C121.2,31.1,124.9,34.8,129.5,34.8z"/>
			<path class="st4" d="M126,98.9h10.3v6.2H124c-2,0-2.8-2.5-1.2-3.7L126,98.9z"/>
			<path class="st4" d="M109.5,98.9h10.3v6.2h-12.4c-2,0-2.8-2.5-1.2-3.7L109.5,98.9z"/>
			<g>
				<g>
					<path class="st6" d="M123.2,11.2h13.9c4.6,0,8.3,3.7,8.3,8.3v7c0,3.9-2.6,7.1-6.2,8v-7.6h-2.7l0,0c-1.8,0-3.2-1.4-3.2-3.2V19
						h-12.1l-2.1-3.7C119.1,13,121,11.2,123.2,11.2z"/>
				</g>
				<g>
					<path class="st7" d="M123.2,11.2h13.9c4.6,0,8.3,3.7,8.3,8.3v7c0,3.9-2.6,7.1-6.2,8v-7.6h-2.7l0,0c-1.8,0-3.2-1.4-3.2-3.2V19
						h-12.1l-2.1-3.7C119.1,13,121,11.2,123.2,11.2z"/>
				</g>
			</g>
			<circle class="st4" cx="139.2" cy="26.9" r="2.7"/>
			<g>
				<path class="st5" d="M127.7,38.5c-1.9,4,3.4,6.3,11.5,0h3.5v8.3h4.1v26.9h-26.9V38.5H127.7z"/>
			</g>
			<path class="st8" d="M126,98.9h10.3v6.2H124c-2,0-2.8-2.5-1.2-3.7L126,98.9z"/>
			<path class="st8" d="M109.5,98.9h10.3v6.2h-12.4c-2,0-2.8-2.5-1.2-3.7L109.5,98.9z"/>
			<path class="st8" d="M128,27.3L128,27.3c0.3,0,0.6-0.3,0.6-0.6v-2.9c0-0.3-0.3-0.6-0.6-0.6l0,0c-0.3,0-0.6,0.3-0.6,0.6v2.9
				C127.4,27,127.7,27.3,128,27.3z"/>
			<path class="st8" d="M123.9,27.3L123.9,27.3c0.3,0,0.6-0.3,0.6-0.6v-2.9c0-0.3-0.3-0.6-0.6-0.6h0c-0.3,0-0.6,0.3-0.6,0.6v2.9
				C123.2,27,123.5,27.3,123.9,27.3z"/>
			<ellipse class="st9" cx="125.8" cy="29.7" rx="1.6" ry="0.4"/>
			<g>
				<path class="st8" d="M119.9,38.5h7.8c-0.7,1.4-0.4,2.6,0.5,3.3v33.9h-8.3V38.5z"/>
				<path class="st8" d="M139.2,38.5h3.5v8.3h4.1v28.9h-14.5V42.2C134.2,41.7,136.6,40.5,139.2,38.5z"/>
			</g>
			<path class="st8" d="M132.3,42.2l6.8-6c0,0,2.1,0.7,2.1,2.3S132.3,42.2,132.3,42.2z"/>
			<path class="st8" d="M128.2,41.8c-2.5-2-0.5-3.3-0.5-3.3s-4.3-1.6-4.3,0S127,41.3,128.2,41.8z"/>
			
				<rect x="126" y="95" transform="matrix(-1 4.485067e-11 -4.485067e-11 -1 262.4202 193.9212)" class="st8" width="10.3" height="3.9"/>
			
				<rect x="109.5" y="95" transform="matrix(-1 4.485067e-11 -4.485067e-11 -1 229.3341 193.9212)" class="st8" width="10.3" height="3.9"/>
			<path class="st8" d="M137.1,11.2c-2,0-7.9-2-9.7-3.9c0,2.2,0.8,4.6,2.8,5.2"/>
			<path class="st8" d="M130.6,11.2c-2,0-7.9-2-9.7-3.9c0,2.2,0.8,4.6,2.8,5.2"/>
			<path class="st8" d="M123.6,11.2c-3.2,0-7.8,0-10.1-3.9c0,2.2,1.2,11.8,7.7,11.8"/>
			<path class="st4" d="M142.7,38.5l4.1,0.7c2.2,0.4,3.8,2.5,3.4,4.8l-2.9,16.3c-0.4,2.2-2.5,3.8-4.8,3.4l0,0
				c-2.2-0.4-3.8-2.5-3.4-4.8L142.7,38.5z"/>
			<g>
				<path class="st5" d="M142.7,38.5l4.1,0.7c2.2,0.4,3.8,2.5,3.4,4.8l-2.9,16.3l-8.1-1.4L142.7,38.5z"/>
			</g>
			<g>
				<path class="st4" d="M147.2,60.3l-0.7,4.1c-0.4,2.2-2.5,3.8-4.8,3.4L112,62.5c-2.2-0.4-3.8-2.5-3.4-4.8v0
					c0.4-2.2,2.5-3.8,4.8-3.4L147.2,60.3z"/>
			</g>
			<path class="st10" d="M107,58.2l7.4-0.7c0.4,0,0.6-0.5,0.5-1L111,40.3c-0.1-0.5-0.5-0.9-1-0.8l-7.4,0.7c-0.4,0-0.6,0.5-0.5,1
				l3.9,16.2C106.1,57.9,106.5,58.2,107,58.2z"/>
		</g>
	</g>
	<g>
		<g>
			<path class="st11" d="M228.4,94.2c2.9,5.4,3.2,11.5,1.1,17c-1.2,3.3-2.9,4.8-5.3,6.6c-2.4,1.8-5,2.1-7.8,1.9
				c1.7,6.3,6,11.4,7.3,17.8c1.5-0.4,5.2-3.8,6.4-3.4c1.1,0.4,0,3.6-0.6,4.7c-0.6,1.1-2.3,2.7-3.6,3.4c-1.3,0.7-2.9,0.8-4.4,0.9
				c-3.7,2.6-7.7,3.9-12.1,4.5c-0.3,1.9-0.5,3.6-0.9,5.5c-0.1,0.3,0,0.5-0.3,0.9c-0.8,1.3-2.1,1.4-3.3,0.2c-1-2.3-1.7-4.6-2.3-7
				c-5.1-0.1-9.1-2.3-11.2-7c-0.7-1.6-0.9-2.9-1-4.7c-0.4-8.2,1.9-16.9,8.7-22.2c-2-0.7-3.8-1.4-5.2-3.1c-0.6-0.7-0.9-1.6-1.1-2.5
				c-1-3.4-0.9-6.3-0.2-9.7c0.1-0.7,0.2-1.6,0.9-2c0.1,0,0.2,0,0.3,0c2.9-0.1,3.6-1.1,6-3.3c2.4-2.2,4.8-5,8.9-6.1
				c3.5-0.9,8.6-0.5,12.1,1.3c-0.7,0.5-1.6,1-2.4,1.5c2-1.4,4-2.5,6.3-3.4c0.5-0.2,1.1-0.4,1.6-0.2s0.8,0.6,1,1.1
				c1.5,3.4,1.3,6.7,0.7,10.4"/>
			<path class="st12" d="M227.9,94.5c2.1,4,2.8,8.1,2.2,12.5c-0.3,2-0.8,3.7-1.7,5.5c-1.2,2.2-2.9,4.1-5.1,5.4
				c-2.1,1.3-4.2,1.7-6.6,1.4c-0.5-0.1-0.9,0.1-0.8,0.6c1.2,4.7,3.8,8.2,5.8,12.5c0.7,1.5,1.2,3.5,1.4,5.3c0,0.4,0.6,0.8,1,0.5
				c1-0.6,2.2-1.3,3.1-1.8c0.9-0.5,1.5-0.9,2.3-1.4c0.3-0.2,0.6-0.3,0.8-0.5c0.2-0.1,0.1,0,0.3-0.2c0.2-0.1,0,0.1-0.2,0
				c-0.1-0.1-0.5-0.3-0.7-0.4c-0.1-0.1,0-0.1,0,0c0,0.2,0,0.1,0,0.4c0,0.3,0,0.8,0,1.2c-0.1,1-0.2,1.8-0.7,2.8
				c-0.6,1-1.9,2.2-2.8,2.8c-0.9,0.6-2,0.8-2.8,1c-0.8,0.2-1.3,0.1-1.9,0.2s-0.8,0.5-1.3,0.8c-0.5,0.3-0.9,0.6-1.4,0.9
				c-1.9,0.9-3.8,1.6-5.9,2.1c-0.9,0.2-1.7,0.4-2.6,0.5c-0.3,0-0.6,0.1-0.8,0.1c-0.3,0,0,0-0.2,0c-0.2,0-0.6,0.2-0.6,0.5
				c-0.2,1.1-0.3,2.2-0.5,3.3c-0.1,0.6-0.2,1.2-0.3,1.7c-0.1,0.5-0.1,0.9-0.3,1.3c-0.8,1.2-1.9,0.7-2.4-0.4c-0.9-2-1.4-4.1-2-6.3
				c-0.1-0.3-0.3-0.5-0.6-0.5c-3.3-0.1-6.1-0.7-8.5-3.3c-2.4-2.6-3.1-5.7-3.3-9.4c-0.1-2.9,0.5-6.3,1.4-9.1s2.2-5.5,4-7.8
				c1-1.3,2.1-2.2,3.2-3.2c0.4-0.3,0.3-0.9-0.1-1.1c-1.6-0.6-3.1-1.1-4.4-2.3c-1.2-1.2-1.7-3-2.1-4.6c-0.4-1.6-0.4-2.9-0.3-4.5
				c0-0.8,0.2-1.4,0.3-2.3c0.2-0.9,0.4-1.9,0.9-2.7c-0.2,0.1-0.4,0.2-0.6,0.2c0.8,0.1,1.5,0.2,2.4-0.1c0.9-0.3,1.6-0.8,2.4-1.4
				c1.4-1.1,2.2-2.2,3.6-3.5c1.4-1.3,2.7-2.5,4.6-3.5c1.9-0.9,4.1-1.5,6.5-1.5c2.5,0,5.4,0.7,7.7,1.8c0-0.4,0-0.7-0.1-1.1
				c-0.7,0.5-1.7,1-2.4,1.5c0.2,0.3,0.5,0.7,0.7,1c1.5-0.9,3-2,4.7-2.7c0.7-0.3,1.4-0.8,2.3-0.8c0.9,0,1.3,1,1.5,1.7
				c1,3,0.7,6,0.3,9c-0.1,0.8,1.1,1.1,1.2,0.2c0.7-3.6,0.8-7.1-0.7-10.6c-0.4-0.9-1-1.5-1.9-1.7c-0.9-0.1-1.8,0.3-2.6,0.7
				c-2,0.9-3.8,1.9-5.5,3.1c-0.7,0.5,0,1.5,0.7,1c0.7-0.4,1.8-1.1,2.3-1.5c0.6-0.4,0.4-0.9-0.1-1.1c-3.5-1.6-7.3-2.4-11.1-1.7
				c-3.7,0.6-6.2,2.4-8.9,4.8c-1,0.9-1.7,1.8-2.7,2.8c-1.1,1-2.3,2.1-3.9,2.2c-0.3,0-0.5-0.1-0.8-0.1c-0.4,0-0.7,0.3-1,0.7
				c-0.5,0.9-0.8,1.9-0.9,2.9c-0.3,1.9-0.5,3.5-0.3,5.5c0.3,2,0.6,4.3,1.9,6.1s3.5,2.6,5.6,3.4c0-0.4-0.1-0.8-0.1-1.1
				c-3.6,2.9-6,6.6-7.5,11c-1.1,3.2-1.8,6.8-1.6,10c0.2,3.9,0.6,6.9,3.1,9.9c2.5,3,6,4.2,9.9,4.2c-0.2-0.2-0.4-0.3-0.6-0.5
				c0.2,0.9,0.5,2.1,0.8,3c0.3,0.9,0.5,1.8,0.8,2.6c0.3,0.8,0.5,1.6,1.2,2.1c1.3,1,2.7,1,3.8-0.4c0.6-0.8,0.6-1.8,0.8-2.9
				c0.2-1.1,0.4-2.7,0.6-4c-0.2,0.1-0.4,0.3-0.6,0.5c1.7-0.2,3.2-0.5,4.8-1c2.8-0.8,5.4-1.8,7.7-3.7c-0.2,0.1-0.3,0.1-0.5,0.2
				c1.1-0.1,2.1-0.1,3.1-0.4c1.7-0.4,3.1-1.4,4.2-2.6c1.2-1.2,1.7-2.5,2-4.1c0.1-0.7,0.2-1.5,0.2-2c0-0.5,0.1-0.7-0.1-1.1
				c-0.2-0.3-0.3-0.4-0.7-0.4c-0.4,0-0.9,0.4-1.3,0.6c-0.9,0.5-1.4,0.8-2.4,1.3c-0.9,0.5-2.3,1.3-3.3,1.9c0.3,0.2,0.7,0.4,1,0.5
				c-0.2-3.3-1.9-6.6-3.5-9.2c-1.6-2.6-2.7-4.4-3.4-7.2c-0.1-0.6-0.2-1-0.4-1.5c-0.2,0.2-0.5,0.4-0.8,0.6c5.2,0.4,9.2-1.7,12.3-5.8
				c1.5-2,2-3.9,2.6-6.2c0.5-2.2,0.6-4.3,0.4-6.6c-0.3-2.8-1.2-5.5-2.6-7.9C228.5,93.1,227.5,93.8,227.9,94.5
				C227.8,94.5,227.9,94.5,227.9,94.5z"/>
		</g>
		<g>
			<path class="st12" d="M200.5,97.9c0.1,0.3,0.1,0.7,0.4,1s0.3,0.5,0.8,0.3c0.5-0.2,1-1.1,1.1-1.7c0.2-0.6,0.3-1.3,0.2-1.9
				c-0.1-0.6-0.4-1-1-0.8c-0.6,0.1-0.9,0.6-1.2,1.2c-0.3,0.6-0.5,1.5-0.3,2.2"/>
			<path class="st12" d="M200.3,97.9c0,0.2,0.3,1.3,0.7,1.4s0.8,0.1,1.1-0.2c0.8-0.9,1.3-2.3,1-3.4c-0.2-1.1-1-1.3-1.9-0.6
				c-0.8,0.7-1.3,2.1-0.9,3.2c0.1,0.2,0.4,0.1,0.4-0.1c-0.2-0.7,0-1.5,0.3-2c0.3-0.5,0.3-0.7,0.8-1c0.5-0.3,1,0.1,1.1,0.7
				c0.1,0.6-0.2,1.5-0.4,2s-0.3,0.6-0.5,0.9c-0.7,0.8-1.2-0.3-1.3-0.7C200.6,97.5,200.3,97.8,200.3,97.9
				C200.3,98.1,200.3,97.9,200.3,97.9z"/>
		</g>
		<path class="st13" d="M201.4,95.4c-0.1,0.3,0,0.6,0.2,0.7c0.3,0.1,0.6,0,0.7-0.2c0.1-0.3,0-0.6-0.2-0.7
			C201.8,95.1,201.5,95.2,201.4,95.4z"/>
		<path class="st12" d="M201.5,125.2c0.3,2.1,1.2,4.5,1.8,6.3c0.6,1.8,0.8,3,2.7,3.6c0.5,0.2,1.3,0.3,1.7-0.2
			c0.4-0.5,0.2-1.5,0.2-2.2c-0.1-2.1-0.6-4.1-1-6.2c-0.1-0.4-0.6-0.5-0.6-0.1c0.2,1.5,0.8,3.2,1,4.7c0.1,0.7,0,1.7,0,2.3
			c0,0.6,0,1-0.3,1.2c-0.4,0.2-0.8,0.1-1.1-0.1c-1.7-0.7-1.7-2.2-2.3-3.8c-0.6-1.6-1.2-3.6-1.5-5.3C202,125,201.4,124.8,201.5,125.2
			C201.5,125.6,201.5,125.2,201.5,125.2z"/>
		<g>
			<path class="st14" d="M220.7,90.9c0.6-0.4,3.8-3.7,4.5-2.4c0.7,1.4-2.2,4.6-2.9,5.9C221.7,93.4,221.2,92.2,220.7,90.9z"/>
			<path class="st14" d="M220.8,91.1c0.6-0.5,1.6-1.2,2.2-1.6c0.6-0.4,1.1-0.7,1.6-0.9c0.5-0.2,0.7-0.2,0.6,0.3
				c-0.2,1.1-1.1,2.4-1.6,3.3c-0.5,0.9-1,1.5-1.4,2.3c-0.1,0.1,0.3,0,0.3,0.1c-0.5-1.2-1-2.4-1.6-3.6c-0.1-0.2-0.5-0.1-0.4,0.1
				c0.5,1.2,1,2.4,1.6,3.6c0.1,0.1,0.2,0.2,0.3,0.1c1.1-1.6,2.1-3.2,2.9-5c0.2-0.4,0.7-1.4-0.1-1.6c-0.8-0.2-1.6,0.5-2.4,1
				c-0.7,0.5-1.6,1.1-2.3,1.7C220.4,91,220.6,91.3,220.8,91.1z"/>
		</g>
		<g>
			<path class="st12" d="M194.5,95.7c-0.7-0.7-2.1-0.9-2.6,0.1c-0.5,1-0.6,2.4,0,3.2C192.6,99.7,195.1,96.4,194.5,95.7z"/>
			<path class="st12" d="M194.7,95.6c0,0-1.5-1-2.1-0.6c-0.6,0.4-1.6,1.5-1.3,2.7c0.1,0.5,0,1.7,0.8,1.7c0.8,0,1.2-1.3,1.9-1.5
				C194.6,97.6,194.7,95.6,194.7,95.6s-0.6-0.1-0.3,0.3c0.4,0.3-0.8,1.8-1.1,2c-0.3,0.2-0.7,0.7-0.9,0.9c-0.2,0.1-0.2,0.2-0.4,0.2
				c-0.1,0,0.1,0.1,0,0c-0.1-0.1,0,0-0.1-0.3c-0.1-0.3-0.3-0.8-0.3-1.3c0-0.5,0.3-1.6,0.9-1.9c0.6-0.3,1.5,0.1,1.9,0.4
				C194.8,96.2,194.7,95.6,194.7,95.6z"/>
		</g>
		<path class="st15" d="M192.6,96.1c0.1-0.1,0.8-0.2,0.9-0.1c0.2,0.1,0.5-0.2,0.2-0.3c-0.3-0.1-1-0.1-1.3,0.1
			C192.1,95.9,192.5,96.1,192.6,96.1C192.7,96,192.6,96.1,192.6,96.1z"/>
		<path class="st12" d="M197.5,107.4c-1.4-1.6-3.3-2.6-5.5-2.2c-0.5,0.1-0.3,0.8,0.2,0.7c1.9-0.2,3.4,0.8,4.7,2.1
			C197.3,108.4,197.8,107.8,197.5,107.4C197.5,107.5,197.5,107.4,197.5,107.4z"/>
	</g>
	<circle class="st0" cx="265.7" cy="73.6" r="32.1"/>
	<polygon class="st0" points="254.4,98.8 236,107.4 240.1,91.2 	"/>
	<g>
		<path class="st1" d="M252.7,57.4c-0.1,0.1-0.2,0.2-0.2,0.3c-0.3,0.9-1,2.2-1.7,3c1.1,0.9,2.3,2.2,3,3.1l-0.4,0.4
			c-0.7-0.9-1.8-2.1-2.9-3.1c-1.1,1.2-2.4,2.3-4,3l-0.4-0.4c1.6-0.6,3-1.8,4.1-3c0.7-0.8,1.5-2.1,1.8-3h-4.2c-0.3,0-0.9,0-0.9,0
			v-0.6c0.1,0,0.6,0,0.9,0h4c0.3,0,0.5,0,0.6-0.1L252.7,57.4z"/>
		<path class="st1" d="M264,57.6c-0.1,0.1-0.1,0.3-0.2,0.4c-0.3,0.9-0.8,2.1-1.5,3.1c0.4,0.2,0.7,0.5,1,0.6l-0.3,0.4
			c-0.2-0.2-0.6-0.4-0.9-0.7c-0.9,1.1-2.2,2.1-4.1,2.8l-0.5-0.4c1.7-0.5,3.1-1.5,4.1-2.6c-0.8-0.5-1.8-1.1-2.4-1.4l0.3-0.4
			c0.6,0.3,1.5,0.8,2.4,1.4c0.7-0.9,1.2-2.1,1.4-3h-3.7c-0.6,0.9-1.5,1.8-2.6,2.6l-0.4-0.3c1.7-1,2.8-2.6,3.2-3.6
			c0.1-0.1,0.2-0.4,0.2-0.6l0.6,0.2c-0.1,0.2-0.2,0.5-0.3,0.6c-0.1,0.2-0.2,0.4-0.3,0.6h3.1c0.2,0,0.4,0,0.5-0.1L264,57.6z"/>
		<path class="st1" d="M271.6,62.1c1.4-0.9,2.6-2.4,3.1-3.6l0.3,0.5c-0.6,1.2-1.7,2.5-3.2,3.5c-1,0.6-2.2,1.3-4.1,1.6l-0.3-0.5
			C269.4,63.3,270.7,62.7,271.6,62.1z M270.6,58.9l-0.4,0.4c-0.5-0.5-1.7-1.6-2.5-2l0.3-0.4C268.8,57.4,270.1,58.4,270.6,58.9z"/>
		<path class="st1" d="M284,57.4c0.1,0,0.1,0,0.2,0c0-0.1-0.1-0.2-0.1-0.4c0-0.6,0.5-1.1,1.1-1.1c0.6,0,1.1,0.5,1.1,1.1
			c0,0.6-0.5,1.1-1.1,1.1c-0.2,0-0.4-0.1-0.5-0.1l0,0c-0.2,1.1-0.7,2.7-1.5,3.7c-0.9,1.2-2,2-3.9,2.6l-0.4-0.5
			c1.9-0.5,3-1.3,3.9-2.4c0.7-0.9,1.2-2.5,1.4-3.5h-5.4c-0.4,0-0.6,0-0.9,0v-0.6c0.3,0,0.6,0.1,0.9,0.1H284z M285.9,57
			c0-0.4-0.3-0.7-0.7-0.7s-0.7,0.3-0.7,0.7c0,0.4,0.3,0.7,0.7,0.7S285.9,57.4,285.9,57z"/>
		<path class="st1" d="M245.3,69.9c-0.3,0.7-0.7,1.5-1.1,2.2v6.8h-0.5v-6.1c-0.4,0.6-0.8,1.1-1.2,1.5c-0.1-0.1-0.2-0.3-0.3-0.4
			c1-1,2-2.5,2.6-4.1L245.3,69.9z M248.5,75.2c-0.1,0.7-0.2,1.4-0.7,2c1,0.6,2.4,1,3.8,1.2c-0.1,0.1-0.2,0.3-0.3,0.4
			c-1.5-0.2-2.8-0.6-3.8-1.3c-0.5,0.5-1.3,1-2.4,1.3c-0.1-0.1-0.2-0.3-0.3-0.4c1.1-0.3,1.8-0.7,2.3-1.2c-0.7-0.5-1.2-1-1.6-1.7
			l0.4-0.2c0.3,0.6,0.8,1.1,1.5,1.5c0.4-0.5,0.6-1.1,0.7-1.8h-2.5v-2.7h2.6v-1.1h-2.9v-0.4h2.9v-1.2h0.5v1.2h3v0.4h-3v1.1h2.6v2.7
			H248.5z M248,74.7c0-0.2,0-0.4,0-0.7v-1.1h-2.1v1.8H248z M248.5,72.9v1.1c0,0.2,0,0.4,0,0.7h2.2v-1.8H248.5z"/>
		<path class="st1" d="M255.1,74c0.7-0.2,2.3-0.8,3.5-0.8c1.3,0,2.3,0.8,2.3,2.1c0,2-2,2.8-4.4,2.9l-0.2-0.5
			c2.1-0.1,4.1-0.7,4.1-2.4c0-0.9-0.7-1.6-1.8-1.6c-1.3,0-3.5,1-4.1,1.1l-0.2-0.5C254.5,74.1,254.7,74.1,255.1,74z"/>
		<path class="st1" d="M264.8,71.5c0.5-0.1,2.5-0.3,4.4-0.4c1.1-0.1,1.9-0.1,2.6-0.2v0.5c-0.6,0-1.5,0-1.9,0.2
			c-1.5,0.5-2.4,2.2-2.4,3.3c0,2.1,2,2.7,3.5,2.8l-0.2,0.5c-1.7,0-3.9-0.9-3.9-3.2c0-1.6,1-2.9,2.1-3.5c-0.9,0.1-3.9,0.4-5,0.6
			l-0.1-0.6C264.3,71.6,264.6,71.5,264.8,71.5z"/>
		<path class="st1" d="M277.3,72.1c-0.1,0.2-0.3,0.4-0.4,0.6c0,0.2,0,0.5,0,0.7c0.8-0.8,2.2-1.7,3.3-1.7c1.3,0,1.9,1.2,1.9,2.8
			c0,0.6,0,1.2-0.1,1.7c0.4,0.3,0.8,0.6,1.1,1l-0.3,0.4c-0.3-0.4-0.7-0.7-1-0.9c-0.3,0.9-0.9,1.4-1.9,1.4c-0.9,0-1.6-0.4-1.6-1.3
			c0-0.7,0.7-1.3,1.6-1.3c0.6,0,1.1,0.1,1.6,0.4c0.1-0.5,0.1-1,0.1-1.6c0-1.4-0.7-2.1-1.5-2.1c-0.9,0-2.3,1-3.2,1.9c0,0.5,0,1,0,1.5
			c0,1,0,1.4,0,2.3l0,0.5h-0.6c0-0.1,0-0.3,0-0.5c0-0.9,0-1.3,0-2.3c0-0.2,0-0.6,0-1c-0.5,0.8-1.3,1.8-1.8,2.6l-0.3-0.4
			c0.5-0.7,1.8-2.4,2.2-3.1c0-0.4,0-0.8,0.1-1.1c-0.4,0.1-1.3,0.2-2,0.3l0-0.5c0.2,0,0.3,0,0.5,0c0.3,0,1-0.1,1.6-0.2
			c0-0.5,0.1-0.9,0.1-1c0-0.2,0-0.4,0-0.6l0.6,0c0,0.2-0.1,0.8-0.2,1.6l0.1,0L277.3,72.1z M281.3,76.3c-0.5-0.3-1-0.4-1.5-0.4
			c-0.6,0-1.1,0.4-1.1,0.8c0,0.6,0.5,0.8,1.1,0.8C280.7,77.6,281.1,77.1,281.3,76.3z"/>
		<path class="st1" d="M287.4,77.7c0-0.3,0.2-0.5,0.5-0.5c0.3,0,0.5,0.2,0.5,0.5c0,0.3-0.2,0.5-0.5,0.5
			C287.7,78.2,287.4,78,287.4,77.7z M287.6,71.5l0-0.8h0.6l0,0.8l-0.1,4.5h-0.4L287.6,71.5z"/>
		<path class="st1" d="M254,86.1c-0.1,0.2-0.3,0.4-0.4,0.6c0,0.2,0,0.5,0,0.7c0.8-0.8,2.2-1.7,3.3-1.7c1.3,0,1.9,1.2,1.9,2.8
			c0,0.6,0,1.2-0.1,1.7c0.4,0.3,0.8,0.6,1.1,1l-0.3,0.4c-0.3-0.4-0.7-0.7-1-0.9c-0.3,0.9-0.9,1.4-1.9,1.4c-0.9,0-1.6-0.4-1.6-1.3
			c0-0.7,0.7-1.3,1.6-1.3c0.6,0,1.1,0.1,1.6,0.4c0.1-0.5,0.1-1,0.1-1.6c0-1.4-0.7-2.1-1.5-2.1c-0.9,0-2.3,1-3.2,1.9
			c0,0.5-0.1,1-0.1,1.5c0,1,0,1.4,0,2.3l0,0.5h-0.6c0-0.1,0-0.3,0-0.5c0-0.9,0-1.3,0-2.3c0-0.2,0-0.6,0-1c-0.5,0.8-1.3,1.8-1.8,2.6
			l-0.3-0.4c0.5-0.7,1.8-2.4,2.2-3.1c0-0.4,0.1-0.8,0.1-1.1c-0.4,0.1-1.3,0.2-2,0.3l0-0.5c0.2,0,0.3,0,0.5,0c0.3,0,1-0.1,1.6-0.2
			c0-0.5,0.1-0.9,0.1-1c0-0.2,0-0.4,0-0.6l0.6,0c0,0.2-0.1,0.8-0.2,1.6l0.1,0L254,86.1z M258.1,90.3c-0.5-0.3-1-0.4-1.5-0.4
			c-0.6,0-1.1,0.4-1.1,0.8c0,0.6,0.5,0.8,1.1,0.8C257.4,91.6,257.8,91.1,258.1,90.3z"/>
		<path class="st1" d="M263.3,88c0.7-0.2,2.3-0.8,3.5-0.8c1.3,0,2.3,0.8,2.3,2.1c0,2-2,2.8-4.4,2.9l-0.2-0.5
			c2.1-0.1,4.1-0.7,4.1-2.4c0-0.9-0.7-1.6-1.8-1.6c-1.3,0-3.5,1-4.1,1.1l-0.2-0.5C262.7,88.1,263,88.1,263.3,88z"/>
		<path class="st1" d="M277.9,86.3c0-0.7-0.5-1.3-1.7-1.3c-0.7,0-1.4,0.3-2.1,1l-0.4-0.3c0.7-0.7,1.4-1.1,2.5-1.1
			c1.4,0,2.2,0.7,2.2,1.8c0,1.5-2.5,1.9-2.2,3.5h-0.5C275.4,88,277.9,87.5,277.9,86.3z M276.1,90.8c0.3,0,0.7,0.2,0.7,0.7
			c0,0.4-0.3,0.7-0.7,0.7c-0.3,0-0.7-0.2-0.7-0.7C275.4,91,275.7,90.8,276.1,90.8z"/>
	</g>
</g>
</svg>
